<?xml version="1.0" encoding="UTF-8"?>
<!DOCTYPE svg PUBLIC "-//W3C//DTD SVG 1.1//EN" "http://www.w3.org/Graphics/SVG/1.1/DTD/svg11.dtd">
<svg xmlns="http://www.w3.org/2000/svg" version="1.1" width="100px" height="100px" style="shape-rendering:geometricPrecision; text-rendering:geometricPrecision; image-rendering:optimizeQuality; fill-rule:evenodd; clip-rule:evenodd" xmlns:xlink="http://www.w3.org/1999/xlink">
<g><path style="opacity:0.196" fill="#eab078" d="M 50.5,10.5 C 49.8333,10.5 49.1667,10.5 48.5,10.5C 49.6323,0.0305897 50.2989,0.0305897 50.5,10.5 Z"/></g>
<g><path style="opacity:0.004" fill="#feff00" d="M 88.5,9.5 C 89.8333,10.1667 89.8333,10.1667 88.5,9.5 Z"/></g>
<g><path style="opacity:0.063" fill="#de9f6f" d="M 12.5,11.5 C 11.8333,10.1667 11.8333,10.1667 12.5,11.5 Z"/></g>
<g><path style="opacity:0.055" fill="#daa46c" d="M 88.5,10.5 C 87.8333,11.1667 87.8333,11.1667 88.5,10.5 Z"/></g>
<g><path style="opacity:0.035" fill="#ecb960" d="M 48.5,10.5 C 49.1667,10.5 49.8333,10.5 50.5,10.5C 55.1442,11.8108 58.1442,14.8108 59.5,19.5C 56.5264,18.2154 53.5264,16.8821 50.5,15.5C 50.0623,14.4937 49.3957,14.4937 48.5,15.5C 46.0517,17.2845 43.385,18.6178 40.5,19.5C 41.7684,15.2329 44.4351,12.2329 48.5,10.5 Z"/></g>
<g><path style="opacity:0.702" fill="#f5c777" d="M 87.5,11.5 C 86.2195,14.4474 84.2195,16.7807 81.5,18.5C 81.5,17.8333 81.1667,17.5 80.5,17.5C 82.2393,14.7573 84.5726,12.7573 87.5,11.5 Z"/></g>
<g><path style="opacity:0.239" fill="#f7cd6c" d="M 12.5,11.5 C 17.774,15.1047 22.4407,19.438 26.5,24.5C 25.8333,24.5 25.5,24.8333 25.5,25.5C 20.46,21.461 16.1266,16.7944 12.5,11.5 Z"/></g>
<g><path style="opacity:0.227" fill="#e3aa78" d="M 48.5,15.5 C 48.5,17.8333 48.5,20.1667 48.5,22.5C 46.6284,23.5114 44.6284,24.3448 42.5,25C 41.8875,27.1474 41.2208,29.314 40.5,31.5C 39.549,32.3256 38.549,32.4922 37.5,32C 38.9624,28.906 40.2957,25.7394 41.5,22.5C 41.0623,21.4937 40.3957,21.4937 39.5,22.5C 38.8243,23.6016 38.1577,24.6016 37.5,25.5C 37.6309,24.6236 37.2975,23.9569 36.5,23.5C 32.4995,24.7382 31.8329,26.7382 34.5,29.5C 33.8333,29.5 33.5,29.8333 33.5,30.5C 32.8333,30.5 32.5,30.1667 32.5,29.5C 32.5,28.8333 32.1667,28.5 31.5,28.5C 31.5,27.8333 31.1667,27.5 30.5,27.5C 29.8333,27.5 29.5,27.1667 29.5,26.5C 29.5,25.8333 29.5,25.1667 29.5,24.5C 33.2487,23.1276 36.9154,21.4609 40.5,19.5C 43.385,18.6178 46.0517,17.2845 48.5,15.5 Z"/></g>
<g><path style="opacity:0.22" fill="#e3aa76" d="M 50.5,15.5 C 53.5264,16.8821 56.5264,18.2154 59.5,19.5C 60.973,20.7401 62.6396,21.7401 64.5,22.5C 65.1924,21.9747 65.6924,21.3081 66,20.5C 66.5661,23.2287 68.0661,25.2287 70.5,26.5C 70.1583,27.3382 69.4916,27.6716 68.5,27.5C 67.3951,26.3995 66.0618,25.7329 64.5,25.5C 64.5,24.8333 64.1667,24.5 63.5,24.5C 63.1583,23.6618 62.4916,23.3284 61.5,23.5C 60.6136,22.2241 59.6136,22.2241 58.5,23.5C 59.9989,24.9038 59.6656,25.5704 57.5,25.5C 55.1729,24.1768 52.8396,22.8435 50.5,21.5C 50.5,19.5 50.5,17.5 50.5,15.5 Z M 61.5,23.5 C 62.4916,23.3284 63.1583,23.6618 63.5,24.5C 62.3774,25.7574 61.7107,25.4241 61.5,23.5 Z"/></g>
<g><path style="opacity:0.02" fill="#fecc65" d="M 29.5,24.5 C 28.8333,23.1667 28.8333,23.1667 29.5,24.5 Z"/></g>
<g><path style="opacity:0.693" fill="#fdd761" d="M 50.5,24.5 C 54.5844,26.2505 57.2511,29.2505 58.5,33.5C 58.2172,34.2891 57.7172,34.9558 57,35.5C 54.2682,32.0165 52.1015,28.3498 50.5,24.5 Z"/></g>
<g><path style="opacity:0.265" fill="#eab46e" d="M 50.5,21.5 C 52.8396,22.8435 55.1729,24.1768 57.5,25.5C 59.6656,25.5704 59.9989,24.9038 58.5,23.5C 59.6136,22.2241 60.6136,22.2241 61.5,23.5C 61.7107,25.4241 62.3774,25.7574 63.5,24.5C 64.1667,24.5 64.5,24.8333 64.5,25.5C 63.3773,27.9787 63.3773,30.312 64.5,32.5C 63.5,33.8333 62.5,35.1667 61.5,36.5C 60.596,35.791 60.2627,34.791 60.5,33.5C 60.2144,31.0673 59.5477,31.0673 58.5,33.5C 57.2511,29.2505 54.5844,26.2505 50.5,24.5C 50.5,23.5 50.5,22.5 50.5,21.5 Z"/></g>
<g><path style="opacity:0.256" fill="#eab46c" d="M 48.5,22.5 C 48.5,23.1667 48.5,23.8333 48.5,24.5C 47.5041,24.4142 46.6708,24.7476 46,25.5C 44.6322,28.1863 43.2989,30.853 42,33.5C 41.3109,34.3567 40.4776,35.0233 39.5,35.5C 37.0592,34.291 35.0592,32.6243 33.5,30.5C 33.5,29.8333 33.8333,29.5 34.5,29.5C 34.7828,30.2891 35.2828,30.9558 36,31.5C 36.813,29.5643 37.313,27.5643 37.5,25.5C 38.1577,24.6016 38.8243,23.6016 39.5,22.5C 40.3957,21.4937 41.0623,21.4937 41.5,22.5C 40.2957,25.7394 38.9624,28.906 37.5,32C 38.549,32.4922 39.549,32.3256 40.5,31.5C 41.2208,29.314 41.8875,27.1474 42.5,25C 44.6284,24.3448 46.6284,23.5114 48.5,22.5 Z"/></g>
<g><path style="opacity:0.404" fill="#f1bf70" d="M 29.5,30.5 C 31.8333,30.8333 33.1667,32.1667 33.5,34.5C 31.8333,33.5 30.5,32.1667 29.5,30.5 Z"/></g>
<g><path style="opacity:0.616" fill="#fdde5a" d="M 26.5,24.5 C 27.5,25.1667 28.5,25.8333 29.5,26.5C 29.5,27.1667 29.8333,27.5 30.5,27.5C 31.1667,27.5 31.5,27.8333 31.5,28.5C 32.1667,28.5 32.5,28.8333 32.5,29.5C 32.5,30.1667 32.8333,30.5 33.5,30.5C 35.0592,32.6243 37.0592,34.291 39.5,35.5C 40.4776,35.0233 41.3109,34.3567 42,33.5C 43.2989,30.853 44.6322,28.1863 46,25.5C 46.6708,24.7476 47.5041,24.4142 48.5,24.5C 48.6567,25.8734 48.49,27.2068 48,28.5C 45.3403,31.1564 43.1736,34.1564 41.5,37.5C 38.2307,36.2735 37.064,37.2735 38,40.5C 37.0228,41.7736 36.1894,41.7736 35.5,40.5C 37.1339,37.7624 36.4672,35.7624 33.5,34.5C 33.1667,32.1667 31.8333,30.8333 29.5,30.5C 29.5,29.8333 29.1667,29.5 28.5,29.5C 28.5,28.8333 28.1667,28.5 27.5,28.5C 26.8333,27.5 26.1667,26.5 25.5,25.5C 25.5,24.8333 25.8333,24.5 26.5,24.5 Z"/></g>
<g><path style="opacity:0.792" fill="#fee86f" d="M 80.5,17.5 C 81.1667,17.5 81.5,17.8333 81.5,18.5C 78.4715,21.859 75.4715,25.1924 72.5,28.5C 71.5,28.8333 70.8333,29.5 70.5,30.5C 69.5,32.1667 68.1667,33.5 66.5,34.5C 65.1667,35.1667 64.1667,36.1667 63.5,37.5C 62.0755,39.0311 61.4088,38.6977 61.5,36.5C 62.5,35.1667 63.5,33.8333 64.5,32.5C 66.5554,31.4412 67.8888,29.7746 68.5,27.5C 69.4916,27.6716 70.1583,27.3382 70.5,26.5C 73.8333,23.5 77.1667,20.5 80.5,17.5 Z"/></g>
<g><path style="opacity:0.004" fill="#ffe9d3" d="M 77.5,33.5 C 77.8966,32.475 78.5632,32.3083 79.5,33C 78.9056,33.4643 78.2389,33.631 77.5,33.5 Z"/></g>
<g><path style="opacity:0.094" fill="#e4ab77" d="M 27.5,28.5 C 28.1667,28.5 28.5,28.8333 28.5,29.5C 27.2485,31.0009 26.2485,32.6675 25.5,34.5C 24.6618,34.8417 24.3284,35.5084 24.5,36.5C 23.6618,36.8417 23.3284,37.5084 23.5,38.5C 25.2646,39.4614 27.2646,39.7947 29.5,39.5C 30.1667,39.8333 30.8333,40.1667 31.5,40.5C 30.7375,41.2679 29.7375,41.7679 28.5,42C 29.1667,42.3333 29.8333,42.6667 30.5,43C 27.9568,44.3819 25.9568,46.2152 24.5,48.5C 22.1667,48.5 19.8333,48.5 17.5,48.5C 16.8333,48.5 16.1667,48.5 15.5,48.5C 17.5958,45.7378 19.2625,42.7378 20.5,39.5C 20.5,39.1667 20.5,38.8333 20.5,38.5C 21.2485,37.469 21.9152,36.3024 22.5,35C 22.1667,34.6667 21.8333,34.3333 21.5,34C 24.0226,32.6403 26.0226,30.807 27.5,28.5 Z"/></g>
<g><path style="opacity:0.035" fill="#efc59f" d="M 20.5,38.5 C 19.7611,38.631 19.0944,38.4643 18.5,38C 19.4368,37.3083 20.1034,37.475 20.5,38.5 Z"/></g>
<g><path style="opacity:0.984" fill="#fef342" d="M 50.5,15.5 C 50.5,17.5 50.5,19.5 50.5,21.5C 50.5,22.5 50.5,23.5 50.5,24.5C 52.1015,28.3498 54.2682,32.0165 57,35.5C 57.7172,34.9558 58.2172,34.2891 58.5,33.5C 59.5477,31.0673 60.2144,31.0673 60.5,33.5C 59.3263,34.5137 58.6596,35.847 58.5,37.5C 56.9557,37.7031 55.6223,38.3698 54.5,39.5C 53.5,39 52.5,38.5 51.5,38C 50.7178,35.2595 50.2178,32.4262 50,29.5C 50.0694,34.6072 48.0694,38.6072 44,41.5C 43.1627,39.9926 41.9961,39.4926 40.5,40C 41.3366,41.0113 41.67,42.1779 41.5,43.5C 40.448,43.3505 39.448,43.5172 38.5,44C 39.6441,47.3194 38.3107,48.8194 34.5,48.5C 35.0715,46.64 35.0715,44.9733 34.5,43.5C 34.9382,43.5654 35.2716,43.3988 35.5,43C 34.3066,41.9054 32.9733,41.072 31.5,40.5C 30.8333,40.1667 30.1667,39.8333 29.5,39.5C 29.56,38.9569 29.8933,38.6236 30.5,38.5C 32.0754,39.4565 33.742,40.1231 35.5,40.5C 36.1894,41.7736 37.0228,41.7736 38,40.5C 37.064,37.2735 38.2307,36.2735 41.5,37.5C 43.1736,34.1564 45.3403,31.1564 48,28.5C 48.49,27.2068 48.6567,25.8734 48.5,24.5C 48.5,23.8333 48.5,23.1667 48.5,22.5C 48.5,20.1667 48.5,17.8333 48.5,15.5C 49.3957,14.4937 50.0623,14.4937 50.5,15.5 Z"/></g>
<g><path style="opacity:0.035" fill="#eebe6e" d="M 25.5,34.5 C 28.1667,37.1667 30.8333,37.1667 33.5,34.5C 36.4672,35.7624 37.1339,37.7624 35.5,40.5C 33.742,40.1231 32.0754,39.4565 30.5,38.5C 29.8933,38.6236 29.56,38.9569 29.5,39.5C 27.2646,39.7947 25.2646,39.4614 23.5,38.5C 24.3382,38.1583 24.6716,37.4916 24.5,36.5C 24.3284,35.5084 24.6618,34.8417 25.5,34.5 Z"/></g>
<g><path style="opacity:0.035" fill="#ebb868" d="M 20.5,39.5 C 19.2625,42.7378 17.5958,45.7378 15.5,48.5C 13.3024,48.8751 11.3024,49.5418 9.5,50.5C 7.14316,50.6633 4.80982,50.4966 2.5,50C 5.27841,48.6081 8.27841,48.1081 11.5,48.5C 12.8015,43.8651 15.8015,40.8651 20.5,39.5 Z"/></g>
<g><path style="opacity:0.171" fill="#e8b072" d="M 66.5,34.5 C 68.2082,36.5124 70.2082,36.8458 72.5,35.5C 72.3284,36.4916 72.6618,37.1583 73.5,37.5C 74.1667,37.5 74.8333,37.5 75.5,37.5C 76.404,38.209 76.7373,39.209 76.5,40.5C 72.5,41.1667 72.5,41.8333 76.5,42.5C 76.3537,44.9424 77.187,45.6091 79,44.5C 79.49,45.7932 79.6567,47.1266 79.5,48.5C 78.325,48.719 77.325,48.3857 76.5,47.5C 74.3584,43.5904 71.0251,41.4237 66.5,41C 66.8333,40.6667 67.1667,40.3333 67.5,40C 65.563,39.8784 64.2297,39.045 63.5,37.5C 64.1667,36.1667 65.1667,35.1667 66.5,34.5 Z"/></g>
<g><path style="opacity:0.035" fill="#ebb666" d="M 78.5,39.5 C 83.2873,40.2815 86.6206,42.9482 88.5,47.5C 98.9042,49.5512 98.9042,50.5512 88.5,50.5C 86.6943,49.9759 85.0276,49.3092 83.5,48.5C 83.6495,47.448 83.4828,46.448 83,45.5C 80.8733,43.8863 79.3733,41.8863 78.5,39.5 Z"/></g>
<g><path style="opacity:0.98" fill="#fff665" d="M 58.5,37.5 C 58.5,38.1667 58.8333,38.5 59.5,38.5C 58.8549,39.8118 57.8549,40.8118 56.5,41.5C 54.674,41.0798 52.674,41.0798 50.5,41.5C 50.2144,39.0673 49.5477,39.0673 48.5,41.5C 46.1789,41.6583 44.3455,42.6583 43,44.5C 42.6174,43.944 42.1174,43.6107 41.5,43.5C 41.67,42.1779 41.3366,41.0113 40.5,40C 41.9961,39.4926 43.1627,39.9926 44,41.5C 48.0694,38.6072 50.0694,34.6072 50,29.5C 50.2178,32.4262 50.7178,35.2595 51.5,38C 52.5,38.5 53.5,39 54.5,39.5C 55.6223,38.3698 56.9557,37.7031 58.5,37.5 Z"/></g>
<g><path style="opacity:0.627" fill="#fad462" d="M 60.5,33.5 C 60.2627,34.791 60.596,35.791 61.5,36.5C 61.4088,38.6977 62.0755,39.0311 63.5,37.5C 64.2297,39.045 65.563,39.8784 67.5,40C 67.1667,40.3333 66.8333,40.6667 66.5,41C 71.0251,41.4237 74.3584,43.5904 76.5,47.5C 77.325,48.3857 78.325,48.719 79.5,48.5C 80.8333,48.5 82.1667,48.5 83.5,48.5C 85.0276,49.3092 86.6943,49.9759 88.5,50.5C 88.5,50.8333 88.5,51.1667 88.5,51.5C 86.7085,51.634 85.0418,51.3007 83.5,50.5C 83.1667,50.5 82.8333,50.5 82.5,50.5C 78.3481,49.4478 74.0148,48.6145 69.5,48C 67.4565,46.292 65.7899,44.292 64.5,42C 64.8333,41.6667 65.1667,41.3333 65.5,41C 63.6799,41.4759 62.0133,41.3093 60.5,40.5C 60.6716,39.5084 60.3382,38.8417 59.5,38.5C 58.8333,38.5 58.5,38.1667 58.5,37.5C 58.6596,35.847 59.3263,34.5137 60.5,33.5 Z"/></g>
<g><path style="opacity:1" fill="#fffdc4" d="M 50.5,41.5 C 50.4701,42.4972 50.9701,43.1639 52,43.5C 53.4219,42.7948 54.7553,42.4615 56,42.5C 55.6906,45.5735 56.8572,48.2402 59.5,50.5C 58.8333,50.5 58.1667,50.5 57.5,50.5C 55.9519,50.8212 55.2852,51.8212 55.5,53.5C 52.4836,54.4901 49.6503,55.1568 47,55.5C 46.378,53.2686 45.2113,51.4352 43.5,50C 44.8333,49 44.8333,48 43.5,47C 45.0267,45.9681 46.36,44.8014 47.5,43.5C 47.8333,42.8333 48.1667,42.1667 48.5,41.5C 49.5477,39.0673 50.2144,39.0673 50.5,41.5 Z"/></g>
<g><path style="opacity:0.992" fill="#fef63b" d="M 60.5,40.5 C 62.0133,41.3093 63.6799,41.4759 65.5,41C 65.1667,41.3333 64.8333,41.6667 64.5,42C 65.7899,44.292 67.4565,46.292 69.5,48C 74.0148,48.6145 78.3481,49.4478 82.5,50.5C 81.5,50.5 80.5,50.5 79.5,50.5C 77.8333,50.5 76.1667,50.5 74.5,50.5C 73.1667,50.5 71.8333,50.5 70.5,50.5C 67.9773,49.7463 65.3106,49.0796 62.5,48.5C 60.9895,46.4912 59.3229,44.6579 57.5,43C 58.3734,41.955 59.3734,41.1217 60.5,40.5 Z"/></g>
<g><path style="opacity:0.686" fill="#fdd760" d="M 31.5,40.5 C 32.9733,41.072 34.3066,41.9054 35.5,43C 35.2716,43.3988 34.9382,43.5654 34.5,43.5C 31.5826,46.1045 28.2493,47.7711 24.5,48.5C 25.9568,46.2152 27.9568,44.3819 30.5,43C 29.8333,42.6667 29.1667,42.3333 28.5,42C 29.7375,41.7679 30.7375,41.2679 31.5,40.5 Z"/></g>
<g><path style="opacity:0.98" fill="#fff775" d="M 59.5,38.5 C 60.3382,38.8417 60.6716,39.5084 60.5,40.5C 59.3734,41.1217 58.3734,41.955 57.5,43C 59.3229,44.6579 60.9895,46.4912 62.5,48.5C 65.3106,49.0796 67.9773,49.7463 70.5,50.5C 70.1667,50.5 69.8333,50.5 69.5,50.5C 66.8333,50.5 64.1667,50.5 61.5,50.5C 60.8333,50.5 60.1667,50.5 59.5,50.5C 56.8572,48.2402 55.6906,45.5735 56,42.5C 54.7553,42.4615 53.4219,42.7948 52,43.5C 50.9701,43.1639 50.4701,42.4972 50.5,41.5C 52.674,41.0798 54.674,41.0798 56.5,41.5C 57.8549,40.8118 58.8549,39.8118 59.5,38.5 Z"/></g>
<g><path style="opacity:0.137" fill="#e3a979" d="M 72.5,28.5 C 73.517,30.9113 75.1837,32.578 77.5,33.5C 77.3893,34.1174 77.056,34.6174 76.5,35C 77.5822,36.3297 78.2488,37.8297 78.5,39.5C 79.3733,41.8863 80.8733,43.8863 83,45.5C 83.4828,46.448 83.6495,47.448 83.5,48.5C 82.1667,48.5 80.8333,48.5 79.5,48.5C 79.6567,47.1266 79.49,45.7932 79,44.5C 77.187,45.6091 76.3537,44.9424 76.5,42.5C 72.5,41.8333 72.5,41.1667 76.5,40.5C 76.7373,39.209 76.404,38.209 75.5,37.5C 75.2144,35.0673 74.5477,35.0673 73.5,37.5C 72.6618,37.1583 72.3284,36.4916 72.5,35.5C 73.8584,33.2572 73.1917,31.5905 70.5,30.5C 70.8333,29.5 71.5,28.8333 72.5,28.5 Z M 75.5,37.5 C 74.8333,37.5 74.1667,37.5 73.5,37.5C 74.5477,35.0673 75.2144,35.0673 75.5,37.5 Z"/></g>
<g><path style="opacity:0.98" fill="#fff76b" d="M 48.5,41.5 C 48.1667,42.1667 47.8333,42.8333 47.5,43.5C 45.4205,44.0444 43.4205,44.8777 41.5,46C 41.9574,46.414 42.2907,46.914 42.5,47.5C 38.8979,49.322 38.8979,50.322 42.5,50.5C 42.6287,52.2161 42.962,53.8828 43.5,55.5C 42.8333,55.8333 42.1667,56.1667 41.5,56.5C 39.461,55.089 38.461,53.089 38.5,50.5C 35.8333,50.5 33.1667,50.5 30.5,50.5C 29.5,50.5 28.5,50.5 27.5,50.5C 29.8333,49.8333 32.1667,49.1667 34.5,48.5C 38.3107,48.8194 39.6441,47.3194 38.5,44C 39.448,43.5172 40.448,43.3505 41.5,43.5C 42.1174,43.6107 42.6174,43.944 43,44.5C 44.3455,42.6583 46.1789,41.6583 48.5,41.5 Z"/></g>
<g><path style="opacity:0.982" fill="#fef144" d="M 34.5,43.5 C 35.0715,44.9733 35.0715,46.64 34.5,48.5C 32.1667,49.1667 29.8333,49.8333 27.5,50.5C 26.5,50.5 25.5,50.5 24.5,50.5C 21.5,50.5 18.5,50.5 15.5,50.5C 16.1667,49.8333 16.8333,49.1667 17.5,48.5C 19.8333,48.5 22.1667,48.5 24.5,48.5C 28.2493,47.7711 31.5826,46.1045 34.5,43.5 Z"/></g>
<g><path style="opacity:0.024" fill="#fcd55b" d="M 15.5,48.5 C 16.1667,48.5 16.8333,48.5 17.5,48.5C 16.8333,49.1667 16.1667,49.8333 15.5,50.5C 14.4324,51.4345 13.099,51.7678 11.5,51.5C 11.1583,50.6618 10.4916,50.3284 9.5,50.5C 11.3024,49.5418 13.3024,48.8751 15.5,48.5 Z"/></g>
<g><path style="opacity:0.979" fill="#fff665" d="M 57.5,50.5 C 58.1667,50.5 58.8333,50.5 59.5,50.5C 60.1667,50.5 60.8333,50.5 61.5,50.5C 60.8288,51.8471 60.8288,53.0138 61.5,54C 59.3808,54.3418 59.0474,55.1751 60.5,56.5C 56.9864,57.7838 53.653,59.4505 50.5,61.5C 50.5,59.8333 50.5,58.1667 50.5,56.5C 52.5,56.1667 54.5,55.8333 56.5,55.5C 56.6287,53.7839 56.962,52.1172 57.5,50.5 Z"/></g>
<g><path style="opacity:0.779" fill="#fedb60" d="M 69.5,50.5 C 69.8333,50.5 70.1667,50.5 70.5,50.5C 71.8333,50.5 73.1667,50.5 74.5,50.5C 73.1848,53.0056 71.1848,54.839 68.5,56C 69.1667,56.3333 69.8333,56.6667 70.5,57C 68.6183,57.1981 66.9516,57.6981 65.5,58.5C 64.7109,58.2172 64.0442,57.7172 63.5,57C 64.8333,56.6667 66.1667,56.3333 67.5,56C 67.1667,55.6667 66.8333,55.3333 66.5,55C 68.1412,53.871 69.1412,52.371 69.5,50.5 Z"/></g>
<g><path style="opacity:0.035" fill="#e9b15d" d="M 83.5,50.5 C 85.0418,51.3007 86.7085,51.634 88.5,51.5C 86.6859,55.973 83.3526,58.6397 78.5,59.5C 79.3733,57.1137 80.8733,55.1137 83,53.5C 83.4828,52.552 83.6495,51.552 83.5,50.5 Z"/></g>
<g><path style="opacity:0.289" fill="#e6af75" d="M 15.5,50.5 C 18.5,50.5 21.5,50.5 24.5,50.5C 25.065,53.8084 27.065,55.8084 30.5,56.5C 31.9997,58.5091 31.4997,59.8424 29,60.5C 26.7487,59.4403 24.5821,58.6069 22.5,58C 23.0848,59.3024 23.7515,60.469 24.5,61.5C 24.5,62.1667 24.8333,62.5 25.5,62.5C 25.5,63.1667 25.8333,63.5 26.5,63.5C 26.0882,65.9726 27.0882,67.3059 29.5,67.5C 29.1667,68.5 28.5,69.1667 27.5,69.5C 25.8546,68.5213 24.5213,67.188 23.5,65.5C 19.6327,66.4875 19.6327,65.9875 23.5,64C 22.0802,60.2833 19.4135,57.9499 15.5,57C 13.5359,55.549 12.2026,53.7157 11.5,51.5C 13.099,51.7678 14.4324,51.4345 15.5,50.5 Z"/></g>
<g><path style="opacity:0.996" fill="#fffaae" d="M 47.5,43.5 C 46.36,44.8014 45.0267,45.9681 43.5,47C 44.8333,48 44.8333,49 43.5,50C 45.2113,51.4352 46.378,53.2686 47,55.5C 49.6503,55.1568 52.4836,54.4901 55.5,53.5C 55.2852,51.8212 55.9519,50.8212 57.5,50.5C 56.962,52.1172 56.6287,53.7839 56.5,55.5C 54.5,55.8333 52.5,56.1667 50.5,56.5C 50.5,58.1667 50.5,59.8333 50.5,61.5C 50.5,63.5 50.5,65.5 50.5,67.5C 49.5655,66.4324 49.2322,65.099 49.5,63.5C 49.5,61.1667 49.5,58.8333 49.5,56.5C 48.1779,56.33 47.0113,56.6634 46,57.5C 45.5831,56.244 44.7498,55.5774 43.5,55.5C 42.962,53.8828 42.6287,52.2161 42.5,50.5C 38.8979,50.322 38.8979,49.322 42.5,47.5C 42.2907,46.914 41.9574,46.414 41.5,46C 43.4205,44.8777 45.4205,44.0444 47.5,43.5 Z"/></g>
<g><path style="opacity:0.992" fill="#fef63b" d="M 30.5,50.5 C 33.1667,50.5 35.8333,50.5 38.5,50.5C 38.461,53.089 39.461,55.089 41.5,56.5C 40.336,59.5785 38.836,59.9118 37,57.5C 36.6174,58.056 36.1174,58.3893 35.5,58.5C 35.1667,58.5 34.8333,58.5 34.5,58.5C 34.6107,57.8826 34.944,57.3826 35.5,57C 33.2101,55.2228 31.5434,53.0562 30.5,50.5 Z"/></g>
<g><path style="opacity:0.692" fill="#fcd661" d="M 24.5,50.5 C 25.5,50.5 26.5,50.5 27.5,50.5C 28.5,50.5 29.5,50.5 30.5,50.5C 31.5434,53.0562 33.2101,55.2228 35.5,57C 34.944,57.3826 34.6107,57.8826 34.5,58.5C 34.44,59.0431 34.1067,59.3764 33.5,59.5C 32.3044,59.1543 32.3044,58.6543 33.5,58C 32.7562,56.9614 31.7562,56.4614 30.5,56.5C 27.065,55.8084 25.065,53.8084 24.5,50.5 Z"/></g>
<g><path style="opacity:0.251" fill="#e9b36f" d="M 74.5,50.5 C 76.1667,50.5 77.8333,50.5 79.5,50.5C 79.7852,52.288 79.4519,53.9547 78.5,55.5C 77.8076,54.9747 77.3076,54.3081 77,53.5C 76.2155,55.286 75.0488,56.786 73.5,58C 77.0321,58.2915 77.3655,59.4582 74.5,61.5C 73.5084,61.3284 72.8417,61.6618 72.5,62.5C 71.609,61.8902 70.609,61.5569 69.5,61.5C 68.5637,60.0256 67.2303,59.0256 65.5,58.5C 66.9516,57.6981 68.6183,57.1981 70.5,57C 69.8333,56.6667 69.1667,56.3333 68.5,56C 71.1848,54.839 73.1848,53.0056 74.5,50.5 Z"/></g>
<g><path style="opacity:0.937" fill="#fef146" d="M 61.5,50.5 C 64.1667,50.5 66.8333,50.5 69.5,50.5C 69.1412,52.371 68.1412,53.871 66.5,55C 66.8333,55.3333 67.1667,55.6667 67.5,56C 66.1667,56.3333 64.8333,56.6667 63.5,57C 64.0442,57.7172 64.7109,58.2172 65.5,58.5C 67.2303,59.0256 68.5637,60.0256 69.5,61.5C 68.8333,61.5 68.1667,61.5 67.5,61.5C 60.0307,57.411 59.6974,58.0776 66.5,63.5C 67.5,65.1667 68.8333,66.5 70.5,67.5C 70.5,68.1667 70.5,68.8333 70.5,69.5C 69.8333,69.5 69.1667,69.5 68.5,69.5C 68.5,69.1667 68.5,68.8333 68.5,68.5C 66.7059,66.2034 64.7059,64.0367 62.5,62C 61.4232,61.5304 60.4232,61.6971 59.5,62.5C 59.5,62.1667 59.5,61.8333 59.5,61.5C 59.4338,59.917 59.7672,58.2503 60.5,56.5C 59.0474,55.1751 59.3808,54.3418 61.5,54C 60.8288,53.0138 60.8288,51.8471 61.5,50.5 Z"/></g>
<g><path style="opacity:0.979" fill="#fff26f" d="M 43.5,55.5 C 44.7498,55.5774 45.5831,56.244 46,57.5C 47.0113,56.6634 48.1779,56.33 49.5,56.5C 49.5,58.8333 49.5,61.1667 49.5,63.5C 48.6364,62.3117 47.6364,61.1451 46.5,60C 45.5509,59.3828 44.7175,59.5494 44,60.5C 43.6667,59.5 43.3333,58.5 43,57.5C 41.9808,59.5018 41.1475,61.5018 40.5,63.5C 39.8333,62.8333 39.1667,62.1667 38.5,61.5C 38.0269,60.0937 37.0269,59.427 35.5,59.5C 35.5,59.1667 35.5,58.8333 35.5,58.5C 36.1174,58.3893 36.6174,58.056 37,57.5C 38.836,59.9118 40.336,59.5785 41.5,56.5C 42.1667,56.1667 42.8333,55.8333 43.5,55.5 Z"/></g>
<g><path style="opacity:0.992" fill="#fef736" d="M 60.5,56.5 C 59.7672,58.2503 59.4338,59.917 59.5,61.5C 57.5,62.8333 55.8333,64.5 54.5,66.5C 53.0413,66.4326 51.7079,66.7659 50.5,67.5C 50.5,65.5 50.5,63.5 50.5,61.5C 53.653,59.4505 56.9864,57.7838 60.5,56.5 Z"/></g>
<g><path style="opacity:0.196" fill="#e5ad7f" d="M 79.5,50.5 C 80.5,50.5 81.5,50.5 82.5,50.5C 82.8333,50.5 83.1667,50.5 83.5,50.5C 83.6495,51.552 83.4828,52.552 83,53.5C 80.8733,55.1137 79.3733,57.1137 78.5,59.5C 78.9175,60.2216 79.5842,60.7216 80.5,61C 76.8695,61.271 75.8695,62.9377 77.5,66C 76.5509,66.6172 75.7175,66.4506 75,65.5C 74.3378,66.9839 73.5045,68.3172 72.5,69.5C 71.6618,69.1583 71.3284,68.4916 71.5,67.5C 72.1667,66.5 72.8333,65.5 73.5,64.5C 74.1667,64.5 74.5,64.1667 74.5,63.5C 74.5,62.8333 74.5,62.1667 74.5,61.5C 77.3655,59.4582 77.0321,58.2915 73.5,58C 75.0488,56.786 76.2155,55.286 77,53.5C 77.3076,54.3081 77.8076,54.9747 78.5,55.5C 79.4519,53.9547 79.7852,52.288 79.5,50.5 Z"/></g>
<g><path style="opacity:0.392" fill="#f2bb6b" d="M 67.5,61.5 C 67.5,62.1667 67.5,62.8333 67.5,63.5C 67.1667,63.5 66.8333,63.5 66.5,63.5C 59.6974,58.0776 60.0307,57.411 67.5,61.5 Z"/></g>
<g><path style="opacity:0.137" fill="#ecb673" d="M 30.5,56.5 C 31.7562,56.4614 32.7562,56.9614 33.5,58C 32.3044,58.6543 32.3044,59.1543 33.5,59.5C 34.1067,59.3764 34.44,59.0431 34.5,58.5C 34.8333,58.5 35.1667,58.5 35.5,58.5C 35.5,58.8333 35.5,59.1667 35.5,59.5C 35.5,60.5 35.5,61.5 35.5,62.5C 34.209,62.2627 33.209,62.596 32.5,63.5C 30.4513,62.3586 28.4513,62.3586 26.5,63.5C 25.8333,63.5 25.5,63.1667 25.5,62.5C 26.5573,61.794 26.2239,61.4607 24.5,61.5C 23.7515,60.469 23.0848,59.3024 22.5,58C 24.5821,58.6069 26.7487,59.4403 29,60.5C 31.4997,59.8424 31.9997,58.5091 30.5,56.5 Z"/></g>
<g><path style="opacity:0.839" fill="#fde16f" d="M 67.5,61.5 C 68.1667,61.5 68.8333,61.5 69.5,61.5C 70.609,61.5569 71.609,61.8902 72.5,62.5C 73.1667,62.8333 73.8333,63.1667 74.5,63.5C 74.5,64.1667 74.1667,64.5 73.5,64.5C 71.5648,63.8505 69.5648,63.5172 67.5,63.5C 67.5,62.8333 67.5,62.1667 67.5,61.5 Z"/></g>
<g><path style="opacity:0.867" fill="#ffe685" d="M 35.5,59.5 C 37.0269,59.427 38.0269,60.0937 38.5,61.5C 37.5592,63.0495 36.8925,64.7162 36.5,66.5C 34.5887,67.075 32.922,68.075 31.5,69.5C 31.1667,68.5 30.5,67.8333 29.5,67.5C 30.5,66.1667 31.5,64.8333 32.5,63.5C 33.209,62.596 34.209,62.2627 35.5,62.5C 35.5,61.5 35.5,60.5 35.5,59.5 Z"/></g>
<g><path style="opacity:0.657" fill="#fdd761" d="M 48.5,74.5 C 46.3757,72.9408 44.709,70.9408 43.5,68.5C 42.675,67.6143 41.675,67.281 40.5,67.5C 40.8459,65.6372 41.8459,64.8039 43.5,65C 44.3052,66.9717 45.6385,68.4717 47.5,69.5C 48.4519,71.0453 48.7852,72.712 48.5,74.5 Z"/></g>
<g><path style="opacity:0.216" fill="#eebd7b" d="M 38.5,61.5 C 39.1667,62.1667 39.8333,62.8333 40.5,63.5C 39.9213,66.3311 38.588,68.6644 36.5,70.5C 36.5,69.1667 36.5,67.8333 36.5,66.5C 36.8925,64.7162 37.5592,63.0495 38.5,61.5 Z"/></g>
<g><path style="opacity:0.035" fill="#efbe65" d="M 68.5,68.5 C 67.8333,68.5 67.1667,68.5 66.5,68.5C 66.1667,67.1667 65.8333,67.1667 65.5,68.5C 65.1667,68.5 64.8333,68.5 64.5,68.5C 63.1302,70.2504 62.1302,72.2504 61.5,74.5C 60.3501,75.8502 59.6834,75.6836 59.5,74C 61.2468,71.0197 61.7468,67.853 61,64.5C 60.2303,63.4019 59.397,63.4019 58.5,64.5C 58.3284,63.5084 58.6618,62.8417 59.5,62.5C 60.4232,61.6971 61.4232,61.5304 62.5,62C 64.7059,64.0367 66.7059,66.2034 68.5,68.5 Z"/></g>
<g><path style="opacity:0.702" fill="#fbd860" d="M 70.5,67.5 C 70.8333,67.5 71.1667,67.5 71.5,67.5C 71.3284,68.4916 71.6618,69.1583 72.5,69.5C 75.1667,72.5 77.8333,75.5 80.5,78.5C 80.5,79.1667 80.5,79.8333 80.5,80.5C 77.1667,77.8333 74.1667,74.8333 71.5,71.5C 71.1667,70.8333 70.8333,70.1667 70.5,69.5C 70.5,68.8333 70.5,68.1667 70.5,67.5 Z"/></g>
<g><path style="opacity:0.977" fill="#fef344" d="M 49.5,63.5 C 49.2322,65.099 49.5655,66.4324 50.5,67.5C 51.7079,66.7659 53.0413,66.4326 54.5,66.5C 52.4589,68.8388 51.1256,71.5055 50.5,74.5C 50.5,75.8333 50.5,77.1667 50.5,78.5C 50.5,78.8333 50.5,79.1667 50.5,79.5C 49.8333,79.1667 49.1667,78.8333 48.5,78.5C 48.5,77.1667 48.5,75.8333 48.5,74.5C 48.7852,72.712 48.4519,71.0453 47.5,69.5C 45.6385,68.4717 44.3052,66.9717 43.5,65C 41.8459,64.8039 40.8459,65.6372 40.5,67.5C 39.8902,68.391 39.5569,69.391 39.5,70.5C 38.5416,70.9528 37.7083,71.6195 37,72.5C 36.6012,72.2716 36.4346,71.9382 36.5,71.5C 36.5,71.1667 36.5,70.8333 36.5,70.5C 38.588,68.6644 39.9213,66.3311 40.5,63.5C 41.1475,61.5018 41.9808,59.5018 43,57.5C 43.3333,58.5 43.6667,59.5 44,60.5C 44.7175,59.5494 45.5509,59.3828 46.5,60C 47.6364,61.1451 48.6364,62.3117 49.5,63.5 Z"/></g>
<g><path style="opacity:0.679" fill="#fed960" d="M 59.5,61.5 C 59.5,61.8333 59.5,62.1667 59.5,62.5C 58.6618,62.8417 58.3284,63.5084 58.5,64.5C 57.295,67.2341 55.795,69.9007 54,72.5C 53.1841,73.8228 52.0174,74.4894 50.5,74.5C 51.1256,71.5055 52.4589,68.8388 54.5,66.5C 55.8333,64.5 57.5,62.8333 59.5,61.5 Z"/></g>
<g><path style="opacity:0.237" fill="#e6ae74" d="M 40.5,67.5 C 41.675,67.281 42.675,67.6143 43.5,68.5C 44.709,70.9408 46.3757,72.9408 48.5,74.5C 48.5,75.8333 48.5,77.1667 48.5,78.5C 48.5,80.1667 48.5,81.8333 48.5,83.5C 45.9051,82.4069 43.7384,80.7402 42,78.5C 41.2352,78.5699 40.7352,78.9033 40.5,79.5C 39.3406,77.7497 37.674,76.7497 35.5,76.5C 36.3382,73.2774 37.6716,72.944 39.5,75.5C 39.8333,75 40.1667,74.5 40.5,74C 40.0109,72.8615 39.6775,71.6948 39.5,70.5C 39.5569,69.391 39.8902,68.391 40.5,67.5 Z"/></g>
<g><path style="opacity:0.463" fill="#f0bd6c" d="M 58.5,64.5 C 57.8221,69.0283 56.1554,73.1949 53.5,77C 53.8333,77.3333 54.1667,77.6667 54.5,78C 53.2068,78.49 51.8734,78.6567 50.5,78.5C 50.5,77.1667 50.5,75.8333 50.5,74.5C 52.0174,74.4894 53.1841,73.8228 54,72.5C 55.795,69.9007 57.295,67.2341 58.5,64.5 Z"/></g>
<g><path style="opacity:0.02" fill="#f0bb70" d="M 31.5,69.5 C 31.7619,71.5638 32.9286,72.8971 35,73.5C 35.2784,72.5842 35.7784,71.9175 36.5,71.5C 36.4346,71.9382 36.6012,72.2716 37,72.5C 37.7083,71.6195 38.5416,70.9528 39.5,70.5C 39.6775,71.6948 40.0109,72.8615 40.5,74C 40.1667,74.5 39.8333,75 39.5,75.5C 37.6716,72.944 36.3382,73.2774 35.5,76.5C 32.1275,80.2849 31.7941,79.7849 34.5,75C 32.6536,73.9702 30.9869,72.8036 29.5,71.5C 29.8333,70.5 30.5,69.8333 31.5,69.5 Z"/></g>
<g><path style="opacity:0.035" fill="#e2aa70" d="M 69.5,73.5 C 70.1667,73.5 70.5,73.8333 70.5,74.5C 70.1667,74.1667 69.8333,73.8333 69.5,73.5 Z"/></g>
<g><path style="opacity:0.004" fill="#fefffe" d="M 70.5,74.5 C 71.525,74.8966 71.6917,75.5632 71,76.5C 70.5357,75.9056 70.369,75.2389 70.5,74.5 Z"/></g>
<g><path style="opacity:0.25" fill="#e2a976" d="M 61.5,74.5 C 65.9946,73.762 66.9946,71.762 64.5,68.5C 64.8333,68.5 65.1667,68.5 65.5,68.5C 65.8333,68.5 66.1667,68.5 66.5,68.5C 67.0059,70.1054 67.6726,70.4387 68.5,69.5C 69.1667,69.5 69.8333,69.5 70.5,69.5C 70.8333,70.1667 71.1667,70.8333 71.5,71.5C 70.1667,71.5 69.5,72.1667 69.5,73.5C 66.419,74.5382 63.419,75.8715 60.5,77.5C 56.6082,79.0621 53.2749,81.3954 50.5,84.5C 50.5,82.8333 50.5,81.1667 50.5,79.5C 50.5,79.1667 50.5,78.8333 50.5,78.5C 51.8734,78.6567 53.2068,78.49 54.5,78C 54.1667,77.6667 53.8333,77.3333 53.5,77C 56.1554,73.1949 57.8221,69.0283 58.5,64.5C 59.397,63.4019 60.2303,63.4019 61,64.5C 61.7468,67.853 61.2468,71.0197 59.5,74C 59.6834,75.6836 60.3501,75.8502 61.5,74.5 Z M 64.5,68.5 C 66.9946,71.762 65.9946,73.762 61.5,74.5C 62.1302,72.2504 63.1302,70.2504 64.5,68.5 Z"/></g>
<g><path style="opacity:0.933" fill="#fae158" d="M 29.5,67.5 C 30.5,67.8333 31.1667,68.5 31.5,69.5C 30.5,69.8333 29.8333,70.5 29.5,71.5C 26.1667,74.5 22.8333,77.5 19.5,80.5C 18.8333,80.5 18.5,80.1667 18.5,79.5C 21.5,76.1667 24.5,72.8333 27.5,69.5C 28.5,69.1667 29.1667,68.5 29.5,67.5 Z"/></g>
<g><path style="opacity:0.675" fill="#f5c986" d="M 80.5,78.5 C 84.0454,80.8565 86.5454,83.8565 88,87.5C 85.6041,84.9334 83.1041,82.6 80.5,80.5C 80.5,79.8333 80.5,79.1667 80.5,78.5 Z"/></g>
<g><path style="opacity:0.686" fill="#f6c889" d="M 18.5,79.5 C 18.5,80.1667 18.8333,80.5 19.5,80.5C 16.9786,82.701 14.4786,85.0343 12,87.5C 13.1143,84.1951 15.2809,81.5284 18.5,79.5 Z"/></g>
<g><path style="opacity:0.478" fill="#ebb869" d="M 60.5,77.5 C 59.1901,82.7961 56.0234,86.4628 51,88.5C 50.459,98.9674 49.459,98.9674 48,88.5C 44.1937,86.5321 41.6937,83.5321 40.5,79.5C 40.7352,78.9033 41.2352,78.5699 42,78.5C 43.7384,80.7402 45.9051,82.4069 48.5,83.5C 48.238,84.9778 48.5713,86.3112 49.5,87.5C 50.3857,86.675 50.719,85.675 50.5,84.5C 53.2749,81.3954 56.6082,79.0621 60.5,77.5 Z"/></g>
<g><path style="opacity:0.537" fill="#fbd75e" d="M 48.5,78.5 C 49.1667,78.8333 49.8333,79.1667 50.5,79.5C 50.5,81.1667 50.5,82.8333 50.5,84.5C 50.719,85.675 50.3857,86.675 49.5,87.5C 48.5713,86.3112 48.238,84.9778 48.5,83.5C 48.5,81.8333 48.5,80.1667 48.5,78.5 Z"/></g>
</svg>
