<?xml version="1.0" encoding="UTF-8"?>
<!DOCTYPE svg PUBLIC "-//W3C//DTD SVG 1.1//EN" "http://www.w3.org/Graphics/SVG/1.1/DTD/svg11.dtd">
<svg xmlns="http://www.w3.org/2000/svg" version="1.1" width="128px" height="128px" style="shape-rendering:geometricPrecision; text-rendering:geometricPrecision; image-rendering:optimizeQuality; fill-rule:evenodd; clip-rule:evenodd" xmlns:xlink="http://www.w3.org/1999/xlink">
<g><path style="opacity:0.02" fill="#a26d00" d="M 64.5,10.5 C 63.8333,10.1667 63.1667,9.83333 62.5,9.5C 62.933,6.83438 63.433,4.16772 64,1.5C 64.498,4.48162 64.6646,7.48162 64.5,10.5 Z"/></g>
<g><path style="opacity:0.008" fill="#8d5d00" d="M 62.5,9.5 C 63.1667,9.83333 63.8333,10.1667 64.5,10.5C 64.5,12.1667 64.5,13.8333 64.5,15.5C 63.8333,16.1667 63.1667,16.8333 62.5,17.5C 62.5,14.8333 62.5,12.1667 62.5,9.5 Z"/></g>
<g><path style="opacity:0.029" fill="#9d6900" d="M 49.5,15.5 C 48.8333,15.5 48.5,15.8333 48.5,16.5C 46.7971,14.1488 46.2971,11.4822 47,8.5C 48.1362,10.743 48.9695,13.0763 49.5,15.5 Z"/></g>
<g><path style="opacity:0.031" fill="#8e5d00" d="M 84.5,21.5 C 83.6618,21.1583 83.3284,20.4916 83.5,19.5C 85.0672,16.0333 86.9005,12.6999 89,9.5C 88.3877,13.7438 86.8877,17.7438 84.5,21.5 Z"/></g>
<g><path style="opacity:0.004" fill="#a77100" d="M 30.5,17.5 C 29.8333,16.1667 29.8333,16.1667 30.5,17.5 Z"/></g>
<g><path style="opacity:0.004" fill="#a77100" d="M 100.5,18.5 C 101.833,19.1667 101.833,19.1667 100.5,18.5 Z"/></g>
<g><path style="opacity:0.004" fill="#9f6a00" d="M 77.5,19.5 C 80.0009,19.5109 80.1676,20.1776 78,21.5C 77.5357,20.9056 77.369,20.2389 77.5,19.5 Z"/></g>
<g><path style="opacity:0.008" fill="#946200" d="M 30.5,17.5 C 33.5497,19.5491 35.883,22.2157 37.5,25.5C 37.5,26.1667 37.1667,26.5 36.5,26.5C 33.7589,24.0246 31.7589,21.0246 30.5,17.5 Z"/></g>
<g><path style="opacity:0.127" fill="#976300" d="M 49.5,15.5 C 50.871,17.936 51.871,20.6027 52.5,23.5C 51.8333,23.5 51.1667,23.5 50.5,23.5C 49.3882,21.4006 48.7215,19.0673 48.5,16.5C 48.5,15.8333 48.8333,15.5 49.5,15.5 Z"/></g>
<g><path style="opacity:0.031" fill="#af7600" d="M 54.5,20.5 C 56.7602,21.2376 56.9269,22.2376 55,23.5C 54.5172,22.552 54.3505,21.552 54.5,20.5 Z"/></g>
<g><path style="opacity:0.071" fill="#976400" d="M 72.5,27.5 C 71.8333,27.5 71.1667,27.5 70.5,27.5C 71.2011,23.6992 72.3677,20.0325 74,16.5C 74.5841,20.3268 74.0841,23.9935 72.5,27.5 Z"/></g>
<g><path style="opacity:0.255" fill="#d29200" d="M 64.5,15.5 C 64.5,18.5 64.5,21.5 64.5,24.5C 63.8333,24.8333 63.1667,25.1667 62.5,25.5C 62.5,22.8333 62.5,20.1667 62.5,17.5C 63.1667,16.8333 63.8333,16.1667 64.5,15.5 Z"/></g>
<g><path style="opacity:0.141" fill="#9f6900" d="M 83.5,19.5 C 83.3284,20.4916 83.6618,21.1583 84.5,21.5C 83.4043,24.0316 82.0709,26.3649 80.5,28.5C 80.5,27.8333 80.1667,27.5 79.5,27.5C 80.3257,24.5152 81.659,21.8485 83.5,19.5 Z"/></g>
<g><path style="opacity:0.071" fill="#8e5e00" d="M 100.5,19.5 C 98.5998,23.7321 95.9331,27.3988 92.5,30.5C 91.8333,30.5 91.5,30.1667 91.5,29.5C 93.7881,25.5442 96.7881,22.2109 100.5,19.5 Z"/></g>
<g><path style="opacity:0.031" fill="#926100" d="M 42.5,24.5 C 43.7733,25.0768 43.7733,25.7435 42.5,26.5C 41.537,26.0302 41.537,25.3635 42.5,24.5 Z"/></g>
<g><path style="opacity:0.071" fill="#946200" d="M 37.5,25.5 C 39.2181,27.2228 40.5514,29.2228 41.5,31.5C 40.8333,31.5 40.5,31.8333 40.5,32.5C 38.8079,30.7952 37.4746,28.7952 36.5,26.5C 37.1667,26.5 37.5,26.1667 37.5,25.5 Z"/></g>
<g><path style="opacity:0.333" fill="#c08300" d="M 50.5,23.5 C 51.1667,23.5 51.8333,23.5 52.5,23.5C 53.3627,25.4214 54.0293,27.4214 54.5,29.5C 53.8333,29.5 53.1667,29.5 52.5,29.5C 51.5418,27.6976 50.8751,25.6976 50.5,23.5 Z"/></g>
<g><path style="opacity:0.02" fill="#a46e00" d="M 35.5,34.5 C 34.8333,34.5 34.5,34.8333 34.5,35.5C 32.0365,33.5389 29.7032,31.3722 27.5,29C 28.1667,28.3333 28.8333,28.3333 29.5,29C 31.3962,31.068 33.3962,32.9013 35.5,34.5 Z"/></g>
<g><path style="opacity:0.282" fill="#c78900" d="M 70.5,27.5 C 71.1667,27.5 71.8333,27.5 72.5,27.5C 72.2785,30.0673 71.6118,32.4006 70.5,34.5C 69.8333,34.5 69.1667,34.5 68.5,34.5C 69.3186,32.2278 69.9853,29.8945 70.5,27.5 Z"/></g>
<g><path style="opacity:0.282" fill="#b67b00" d="M 79.5,27.5 C 80.1667,27.5 80.5,27.8333 80.5,28.5C 80.2041,30.403 79.5375,32.0697 78.5,33.5C 78.44,32.9569 78.1067,32.6236 77.5,32.5C 76.4763,33.8532 75.143,34.5198 73.5,34.5C 74.5143,31.2781 76.5143,28.9447 79.5,27.5 Z"/></g>
<g><path style="opacity:0.008" fill="#916000" d="M 86.5,30.5 C 86.8966,29.475 87.5632,29.3083 88.5,30C 87.9056,30.4643 87.2389,30.631 86.5,30.5 Z"/></g>
<g><path style="opacity:0.031" fill="#b77c00" d="M 62.5,29.5 C 62.634,31.2915 62.3007,32.9582 61.5,34.5C 60.5084,34.3284 59.8417,34.6618 59.5,35.5C 57.3812,35.5323 56.0478,34.5323 55.5,32.5C 56.4734,32.0133 57.4734,31.5133 58.5,31C 57.2888,30.1072 57.2888,29.2739 58.5,28.5C 59.1667,29.5 59.8333,30.5 60.5,31.5C 61.1818,30.7573 61.8485,30.0906 62.5,29.5 Z"/></g>
<g><path style="opacity:0.071" fill="#956200" d="M 29.5,35.5 C 28.5084,35.3284 27.8417,35.6618 27.5,36.5C 24.012,33.9118 20.6787,31.0785 17.5,28C 18.9078,27.6848 20.2411,28.0181 21.5,29C 24.3553,31.0308 27.022,33.1975 29.5,35.5 Z"/></g>
<g><path style="opacity:0.549" fill="#ebae02" d="M 64.5,24.5 C 64.5,25.5 64.5,26.5 64.5,27.5C 64.5,30.1667 64.5,32.8333 64.5,35.5C 64.5,36.5 64.5,37.5 64.5,38.5C 63.8333,38.5 63.1667,38.5 62.5,38.5C 61.6716,36.9251 61.3382,35.5918 61.5,34.5C 62.3007,32.9582 62.634,31.2915 62.5,29.5C 62.5,28.1667 62.5,26.8333 62.5,25.5C 63.1667,25.1667 63.8333,24.8333 64.5,24.5 Z"/></g>
<g><path style="opacity:0.258" fill="#b97e00" d="M 91.5,29.5 C 91.5,30.1667 91.8333,30.5 92.5,30.5C 90.4707,32.8585 88.4707,35.1918 86.5,37.5C 85.7375,36.7321 84.7375,36.2321 83.5,36C 83.7284,35.6012 84.0618,35.4346 84.5,35.5C 85.1667,35.5 85.5,35.1667 85.5,34.5C 86.1667,34.5 86.5,34.1667 86.5,33.5C 88.1667,32.1667 89.8333,30.8333 91.5,29.5 Z"/></g>
<g><path style="opacity:0.322" fill="#d19300" d="M 78.5,33.5 C 78.3404,35.153 77.6737,36.4863 76.5,37.5C 75.6715,36.6676 74.8382,37.001 74,38.5C 73.5172,39.448 73.3505,40.448 73.5,41.5C 72.1779,41.33 71.0113,41.6634 70,42.5C 69.5357,41.9056 69.369,41.2389 69.5,40.5C 69.2627,39.209 69.596,38.209 70.5,37.5C 70.369,38.2389 70.5357,38.9056 71,39.5C 72.1203,37.9698 72.9536,36.3032 73.5,34.5C 75.143,34.5198 76.4763,33.8532 77.5,32.5C 78.1067,32.6236 78.44,32.9569 78.5,33.5 Z"/></g>
<g><path style="opacity:0.333" fill="#c08300" d="M 41.5,31.5 C 43.2624,32.2623 44.2624,33.5956 44.5,35.5C 44.5,36.1667 44.5,36.8333 44.5,37.5C 42.9373,36.0552 41.604,34.3885 40.5,32.5C 40.5,31.8333 40.8333,31.5 41.5,31.5 Z"/></g>
<g><path style="opacity:0.49" fill="#dea001" d="M 52.5,29.5 C 53.1667,29.5 53.8333,29.5 54.5,29.5C 55.1098,30.391 55.4431,31.391 55.5,32.5C 56.0478,34.5323 57.3812,35.5323 59.5,35.5C 60.9143,37.5983 60.2476,38.5983 57.5,38.5C 56.7784,38.0825 56.2784,37.4158 56,36.5C 55.6012,36.7284 55.4346,37.0618 55.5,37.5C 55.1667,37.5 54.8333,37.5 54.5,37.5C 53.8902,36.609 53.5569,35.609 53.5,34.5C 52.962,32.8828 52.6287,31.2161 52.5,29.5 Z"/></g>
<g><path style="opacity:0.041" fill="#b87d00" d="M 64.5,27.5 C 67.0308,29.9032 68.3641,32.5698 68.5,35.5C 68.5,36.1667 68.5,36.8333 68.5,37.5C 66.9382,37.2671 65.6049,36.6005 64.5,35.5C 64.5,32.8333 64.5,30.1667 64.5,27.5 Z"/></g>
<g><path style="opacity:0.071" fill="#8d5d00" d="M 108.5,37.5 C 108.833,36.8333 109.167,36.1667 109.5,35.5C 111.179,33.8253 113.179,32.992 115.5,33C 113.789,35.5193 111.455,37.0193 108.5,37.5 Z"/></g>
<g><path style="opacity:0.333" fill="#c58800" d="M 27.5,36.5 C 27.8417,35.6618 28.5084,35.3284 29.5,35.5C 30.8717,36.5116 32.205,37.5116 33.5,38.5C 32.8333,38.5 32.5,38.8333 32.5,39.5C 31.8333,39.5 31.1667,39.5 30.5,39.5C 29.7281,38.3065 28.7281,37.3065 27.5,36.5 Z"/></g>
<g><path style="opacity:0.041" fill="#b77c00" d="M 53.5,34.5 C 53.5569,35.609 53.8902,36.609 54.5,37.5C 54.2687,40.0632 52.9354,41.7298 50.5,42.5C 50.5,42.1667 50.5,41.8333 50.5,41.5C 50.5,41.1667 50.5,40.8333 50.5,40.5C 51.3382,40.1583 51.6716,39.4916 51.5,38.5C 52.8333,37.8333 52.8333,37.1667 51.5,36.5C 51.5,35.1667 52.1667,34.5 53.5,34.5 Z"/></g>
<g><path style="opacity:0.923" fill="#e8a801" d="M 61.5,34.5 C 61.3382,35.5918 61.6716,36.9251 62.5,38.5C 62.5,39.8333 62.5,41.1667 62.5,42.5C 61.1667,42.5 59.8333,42.5 58.5,42.5C 57.7659,41.2921 57.4326,39.9587 57.5,38.5C 60.2476,38.5983 60.9143,37.5983 59.5,35.5C 59.8417,34.6618 60.5084,34.3284 61.5,34.5 Z"/></g>
<g><path style="opacity:0.506" fill="#e6a500" d="M 64.5,35.5 C 65.6049,36.6005 66.9382,37.2671 68.5,37.5C 67.5,38.8333 66.5,40.1667 65.5,41.5C 65.1667,41.5 64.8333,41.5 64.5,41.5C 64.5,40.5 64.5,39.5 64.5,38.5C 64.5,37.5 64.5,36.5 64.5,35.5 Z"/></g>
<g><path style="opacity:0.132" fill="#c18500" d="M 86.5,33.5 C 85.8333,33.5 85.5,33.8333 85.5,34.5C 84.8333,34.5 84.5,34.8333 84.5,35.5C 84.0618,35.4346 83.7284,35.6012 83.5,36C 84.7375,36.2321 85.7375,36.7321 86.5,37.5C 85.4884,38.8717 84.4884,40.205 83.5,41.5C 83.1959,39.2043 82.1959,38.871 80.5,40.5C 79.8333,40.1667 79.1667,39.8333 78.5,39.5C 80.2941,37.2034 82.2941,35.0367 84.5,33C 85.4368,32.3083 86.1034,32.475 86.5,33.5 Z"/></g>
<g><path style="opacity:0.004" fill="#a16c00" d="M 12.5,37.5 C 14.337,37.6395 14.6704,38.3061 13.5,39.5C 12.7025,39.0431 12.3691,38.3764 12.5,37.5 Z"/></g>
<g><path style="opacity:0.416" fill="#c98d00" d="M 44.5,35.5 C 46.543,36.5794 47.8763,38.246 48.5,40.5C 47.596,41.209 47.2627,42.209 47.5,43.5C 47.1667,43.5 46.8333,43.5 46.5,43.5C 45.8333,41.5 45.1667,39.5 44.5,37.5C 44.5,36.8333 44.5,36.1667 44.5,35.5 Z"/></g>
<g><path style="opacity:0.128" fill="#b97f00" d="M 51.5,36.5 C 51.5,37.1667 51.5,37.8333 51.5,38.5C 51.6716,39.4916 51.3382,40.1583 50.5,40.5C 48.4405,37.4013 47.2738,34.068 47,30.5C 48.7641,32.3893 50.2641,34.3893 51.5,36.5 Z"/></g>
<g><path style="opacity:0.02" fill="#a97200" d="M 93.5,37.5 C 94.8333,38.1667 94.8333,38.1667 93.5,37.5 Z"/></g>
<g><path style="opacity:0.141" fill="#976300" d="M 109.5,35.5 C 109.167,36.1667 108.833,36.8333 108.5,37.5C 107.101,38.8897 105.434,39.8897 103.5,40.5C 103.5,39.8333 103.167,39.5 102.5,39.5C 104.663,37.9172 106.996,36.5839 109.5,35.5 Z"/></g>
<g><path style="opacity:0.116" fill="#bb7f00" d="M 35.5,34.5 C 38.1667,36.5 40.5,38.8333 42.5,41.5C 41.8333,42.1667 41.1667,42.8333 40.5,43.5C 39.8333,43.5 39.5,43.1667 39.5,42.5C 38.2464,39.9066 36.5798,37.5732 34.5,35.5C 34.5,34.8333 34.8333,34.5 35.5,34.5 Z"/></g>
<g><path style="opacity:0.543" fill="#e8aa01" d="M 68.5,34.5 C 69.1667,34.5 69.8333,34.5 70.5,34.5C 70.5,35.5 70.5,36.5 70.5,37.5C 69.596,38.209 69.2627,39.209 69.5,40.5C 69.1667,40.5 68.8333,40.5 68.5,40.5C 67.391,40.5569 66.391,40.8902 65.5,41.5C 66.5,40.1667 67.5,38.8333 68.5,37.5C 68.5,36.8333 68.5,36.1667 68.5,35.5C 68.5,35.1667 68.5,34.8333 68.5,34.5 Z"/></g>
<g><path style="opacity:0.225" fill="#de9f00" d="M 54.5,37.5 C 54.8333,37.5 55.1667,37.5 55.5,37.5C 55.8851,40.89 54.5517,43.2233 51.5,44.5C 51.1667,43.8333 50.8333,43.1667 50.5,42.5C 52.9354,41.7298 54.2687,40.0632 54.5,37.5 Z"/></g>
<g><path style="opacity:0.11" fill="#d59600" d="M 76.5,38.5 C 76.4088,40.6977 77.0755,41.0311 78.5,39.5C 79.1667,39.8333 79.8333,40.1667 80.5,40.5C 80.4431,41.609 80.1098,42.609 79.5,43.5C 79.1667,43.5 78.8333,43.5 78.5,43.5C 77.1667,43.5 75.8333,43.5 74.5,43.5C 74.4021,41.4471 75.0687,39.7804 76.5,38.5 Z"/></g>
<g><path style="opacity:0.757" fill="#e8ae05" d="M 83.5,41.5 C 82.5,42.8333 81.5,44.1667 80.5,45.5C 80.1667,45.5 79.8333,45.5 79.5,45.5C 79.5,44.8333 79.5,44.1667 79.5,43.5C 80.1098,42.609 80.4431,41.609 80.5,40.5C 82.1959,38.871 83.1959,39.2043 83.5,41.5 Z"/></g>
<g><path style="opacity:0.243" fill="#bf8200" d="M 102.5,39.5 C 103.167,39.5 103.5,39.8333 103.5,40.5C 100.98,42.2632 98.6471,44.2632 96.5,46.5C 96.1667,46.5 95.8333,46.5 95.5,46.5C 95.1667,46.5 94.8333,46.5 94.5,46.5C 94.6716,45.5084 94.3382,44.8417 93.5,44.5C 96.331,42.5832 99.331,40.9166 102.5,39.5 Z"/></g>
<g><path style="opacity:0.571" fill="#e0a301" d="M 33.5,38.5 C 35.7721,39.4411 37.7721,40.7745 39.5,42.5C 39.5,43.1667 39.8333,43.5 40.5,43.5C 41.3065,44.7281 42.3065,45.7281 43.5,46.5C 42.5084,46.3284 41.8417,46.6618 41.5,47.5C 40.1667,46.5 38.8333,45.5 37.5,44.5C 37.1667,44.5 36.8333,44.5 36.5,44.5C 36.5,43.8333 36.1667,43.5 35.5,43.5C 35.1667,42.5 34.5,41.8333 33.5,41.5C 33.1667,40.8333 32.8333,40.1667 32.5,39.5C 32.5,38.8333 32.8333,38.5 33.5,38.5 Z"/></g>
<g><path style="opacity:0.877" fill="#edae02" d="M 57.5,38.5 C 57.4326,39.9587 57.7659,41.2921 58.5,42.5C 57.5655,43.5676 57.2322,44.901 57.5,46.5C 55.8762,46.6399 54.7096,45.9733 54,44.5C 53.6174,45.056 53.1174,45.3893 52.5,45.5C 51.8333,45.5 51.5,45.1667 51.5,44.5C 54.5517,43.2233 55.8851,40.89 55.5,37.5C 55.4346,37.0618 55.6012,36.7284 56,36.5C 56.2784,37.4158 56.7784,38.0825 57.5,38.5 Z"/></g>
<g><path style="opacity:0.988" fill="#fad116" d="M 62.5,38.5 C 63.1667,38.5 63.8333,38.5 64.5,38.5C 64.5,39.5 64.5,40.5 64.5,41.5C 64.5,42.8333 64.5,44.1667 64.5,45.5C 64.5,46.1667 64.5,46.8333 64.5,47.5C 63.8826,47.3893 63.3826,47.056 63,46.5C 62.6232,47.9423 61.7899,48.9423 60.5,49.5C 59.8902,48.609 59.5569,47.609 59.5,46.5C 61.9118,46.3059 62.9118,44.9726 62.5,42.5C 62.5,41.1667 62.5,39.8333 62.5,38.5 Z"/></g>
<g><path style="opacity:0.934" fill="#f2b603" d="M 68.5,40.5 C 68.0254,43.0821 68.6921,45.0821 70.5,46.5C 70.1667,47.1667 69.8333,47.8333 69.5,48.5C 68.0689,48.1193 67.2355,47.1193 67,45.5C 66.2303,46.5981 65.397,46.5981 64.5,45.5C 64.5,44.1667 64.5,42.8333 64.5,41.5C 64.8333,41.5 65.1667,41.5 65.5,41.5C 66.391,40.8902 67.391,40.5569 68.5,40.5 Z"/></g>
<g><path style="opacity:0.004" fill="#9c6800" d="M 29.5,42.5 C 29.1034,43.525 28.4368,43.6917 27.5,43C 28.0944,42.5357 28.7611,42.369 29.5,42.5 Z"/></g>
<g><path style="opacity:0.984" fill="#f4b801" d="M 58.5,42.5 C 59.8333,42.5 61.1667,42.5 62.5,42.5C 62.9118,44.9726 61.9118,46.3059 59.5,46.5C 59.1667,45.1667 58.8333,43.8333 58.5,42.5 Z"/></g>
<g><path style="opacity:0.49" fill="#eaac01" d="M 76.5,37.5 C 76.5,37.8333 76.5,38.1667 76.5,38.5C 75.0687,39.7804 74.4021,41.4471 74.5,43.5C 75.8333,43.5 77.1667,43.5 78.5,43.5C 78.5,44.1667 78.1667,44.5 77.5,44.5C 76.1779,44.33 75.0113,44.6634 74,45.5C 73.7006,42.2018 72.8673,41.8685 71.5,44.5C 71.1667,45.1667 70.8333,45.8333 70.5,46.5C 68.6921,45.0821 68.0254,43.0821 68.5,40.5C 68.8333,40.5 69.1667,40.5 69.5,40.5C 69.369,41.2389 69.5357,41.9056 70,42.5C 71.0113,41.6634 72.1779,41.33 73.5,41.5C 73.3505,40.448 73.5172,39.448 74,38.5C 74.8382,37.001 75.6715,36.6676 76.5,37.5 Z"/></g>
<g><path style="opacity:0.31" fill="#d99b00" d="M 42.5,41.5 C 43.8333,42.1667 45.1667,42.8333 46.5,43.5C 46.5,44.1667 46.8333,44.5 47.5,44.5C 49.6246,45.3676 49.7913,46.3676 48,47.5C 46.5603,46.8524 45.0603,46.5191 43.5,46.5C 42.3065,45.7281 41.3065,44.7281 40.5,43.5C 41.1667,42.8333 41.8333,42.1667 42.5,41.5 Z"/></g>
<g><path style="opacity:0.059" fill="#bf8300" d="M 85.5,47.5 C 82.8333,47.8333 82.8333,48.1667 85.5,48.5C 85.5,48.8333 85.5,49.1667 85.5,49.5C 84.0695,49.4208 82.7362,49.7542 81.5,50.5C 81.123,49.1589 80.123,47.8256 78.5,46.5C 78.5,45.8333 78.8333,45.5 79.5,45.5C 79.8333,45.5 80.1667,45.5 80.5,45.5C 80.369,46.2389 80.5357,46.9056 81,47.5C 84.4125,44.0378 88.2458,41.5378 92.5,40C 89.9614,42.3697 87.6281,44.8697 85.5,47.5 Z"/></g>
<g><path style="opacity:0.02" fill="#986500" d="M 27.5,47.5 C 27.5,48.1667 27.5,48.8333 27.5,49.5C 22.6894,47.9672 18.0228,46.1339 13.5,44C 18.2349,44.6287 22.9016,45.7953 27.5,47.5 Z"/></g>
<g><path style="opacity:0.004" fill="#9c6800" d="M 102.5,43.5 C 103.525,43.8966 103.692,44.5632 103,45.5C 102.536,44.9056 102.369,44.2389 102.5,43.5 Z"/></g>
<g><path style="opacity:0.047" fill="#a87100" d="M 30.5,39.5 C 31.1667,39.5 31.8333,39.5 32.5,39.5C 32.8333,40.1667 33.1667,40.8333 33.5,41.5C 33.0618,41.4346 32.7284,41.6012 32.5,42C 33.2438,43.0386 34.2438,43.5386 35.5,43.5C 36.1667,43.5 36.5,43.8333 36.5,44.5C 36.5,44.8333 36.5,45.1667 36.5,45.5C 36.5,45.8333 36.5,46.1667 36.5,46.5C 34.1838,45.1944 31.8505,43.8611 29.5,42.5C 29.5569,41.391 29.8902,40.391 30.5,39.5 Z"/></g>
<g><path style="opacity:0.489" fill="#d89900" d="M 93.5,44.5 C 94.3382,44.8417 94.6716,45.5084 94.5,46.5C 94.5,47.1667 94.1667,47.5 93.5,47.5C 92.8333,47.8333 92.1667,48.1667 91.5,48.5C 89.6907,47.7093 87.6907,47.7093 85.5,48.5C 85.5,48.1667 85.5,47.8333 85.5,47.5C 88.3554,46.8832 91.0221,45.8832 93.5,44.5 Z"/></g>
<g><path style="opacity:0.045" fill="#be8200" d="M 37.5,44.5 C 38.8333,45.5 40.1667,46.5 41.5,47.5C 41.6036,49.7028 42.2702,51.7028 43.5,53.5C 42.5084,53.6716 41.8417,53.3382 41.5,52.5C 40.5265,49.865 38.8598,47.865 36.5,46.5C 36.5,46.1667 36.5,45.8333 36.5,45.5C 37.1667,45.5 37.5,45.1667 37.5,44.5 Z"/></g>
<g><path style="opacity:0.882" fill="#f4b902" d="M 57.5,46.5 C 58.494,47.9989 58.494,49.6656 57.5,51.5C 56.5,50.8333 55.5,50.1667 54.5,49.5C 53.8333,48.1667 53.1667,46.8333 52.5,45.5C 53.1174,45.3893 53.6174,45.056 54,44.5C 54.7096,45.9733 55.8762,46.6399 57.5,46.5 Z"/></g>
<g><path style="opacity:0.992" fill="#feea1f" d="M 64.5,47.5 C 64.7822,48.7777 65.4489,49.7777 66.5,50.5C 67.9303,51.5375 69.597,52.2041 71.5,52.5C 71.4326,53.9587 71.7659,55.2921 72.5,56.5C 69.1971,54.7794 66.0304,52.7794 63,50.5C 62.6012,50.7284 62.4346,51.0618 62.5,51.5C 61.1667,51.5 60.5,50.8333 60.5,49.5C 61.7899,48.9423 62.6232,47.9423 63,46.5C 63.3826,47.056 63.8826,47.3893 64.5,47.5 Z"/></g>
<g><path style="opacity:0.947" fill="#efb103" d="M 77.5,44.5 C 76.2921,47.0442 74.2921,48.3775 71.5,48.5C 72.3543,46.965 72.3543,45.6316 71.5,44.5C 72.8673,41.8685 73.7006,42.2018 74,45.5C 75.0113,44.6634 76.1779,44.33 77.5,44.5 Z"/></g>
<g><path style="opacity:0.02" fill="#9f6b00" d="M 95.5,49.5 C 94.8333,48.8333 94.1667,48.1667 93.5,47.5C 94.1667,47.5 94.5,47.1667 94.5,46.5C 94.8333,46.5 95.1667,46.5 95.5,46.5C 95.8333,47.8333 96.1667,47.8333 96.5,46.5C 97.8474,45.9717 99.1807,45.805 100.5,46C 99.1537,47.6692 97.487,48.8358 95.5,49.5 Z"/></g>
<g><path style="opacity:0.525" fill="#eaab01" d="M 48.5,40.5 C 49.1667,40.8333 49.8333,41.1667 50.5,41.5C 50.5,41.8333 50.5,42.1667 50.5,42.5C 50.8333,43.1667 51.1667,43.8333 51.5,44.5C 50.9569,44.56 50.6236,44.8933 50.5,45.5C 53.784,48.976 53.1173,50.6427 48.5,50.5C 46.6115,49.396 44.9448,48.0627 43.5,46.5C 45.0603,46.5191 46.5603,46.8524 48,47.5C 49.7913,46.3676 49.6246,45.3676 47.5,44.5C 47.5,44.1667 47.5,43.8333 47.5,43.5C 47.2627,42.209 47.596,41.209 48.5,40.5 Z"/></g>
<g><path style="opacity:0.992" fill="#fbcf0c" d="M 64.5,45.5 C 65.397,46.5981 66.2303,46.5981 67,45.5C 67.2355,47.1193 68.0689,48.1193 69.5,48.5C 69.0269,49.9063 68.0269,50.573 66.5,50.5C 65.4489,49.7777 64.7822,48.7777 64.5,47.5C 64.5,46.8333 64.5,46.1667 64.5,45.5 Z"/></g>
<g><path style="opacity:0.031" fill="#936100" d="M 102.5,46.5 C 103.773,47.0768 103.773,47.7435 102.5,48.5C 101.537,48.0302 101.537,47.3635 102.5,46.5 Z"/></g>
<g><path style="opacity:0.141" fill="#a16b00" d="M 27.5,47.5 C 29.7496,48.1302 31.7496,49.1302 33.5,50.5C 32.8333,50.5 32.5,50.8333 32.5,51.5C 30.597,51.2041 28.9303,50.5375 27.5,49.5C 27.5,48.8333 27.5,48.1667 27.5,47.5 Z"/></g>
<g><path style="opacity:0.706" fill="#f7ca17" d="M 41.5,47.5 C 41.8417,46.6618 42.5084,46.3284 43.5,46.5C 44.9448,48.0627 46.6115,49.396 48.5,50.5C 48.8333,51.1667 49.1667,51.8333 49.5,52.5C 47.8333,51.8333 46.1667,51.1667 44.5,50.5C 43.8333,49.1667 42.8333,48.1667 41.5,47.5 Z"/></g>
<g><path style="opacity:0.984" fill="#f8c912" d="M 78.5,43.5 C 78.8333,43.5 79.1667,43.5 79.5,43.5C 79.5,44.1667 79.5,44.8333 79.5,45.5C 78.8333,45.5 78.5,45.8333 78.5,46.5C 77.8333,46.5 77.5,46.8333 77.5,47.5C 76.5,48.1667 75.5,48.8333 74.5,49.5C 73.5,50.1667 72.5,50.8333 71.5,51.5C 70.1667,50.5 70.1667,49.5 71.5,48.5C 74.2921,48.3775 76.2921,47.0442 77.5,44.5C 78.1667,44.5 78.5,44.1667 78.5,43.5 Z"/></g>
<g><path style="opacity:0.604" fill="#edb507" d="M 91.5,48.5 C 88.6408,49.0909 86.3075,50.4242 84.5,52.5C 83.391,52.5569 82.391,52.8902 81.5,53.5C 81.5,53.1667 81.5,52.8333 81.5,52.5C 82.8333,51.5 84.1667,50.5 85.5,49.5C 85.5,49.1667 85.5,48.8333 85.5,48.5C 87.6907,47.7093 89.6907,47.7093 91.5,48.5 Z"/></g>
<g><path style="opacity:0.02" fill="#a97100" d="M 17.5,49.5 C 19.337,49.6395 19.6704,50.3061 18.5,51.5C 17.7025,51.0431 17.3691,50.3764 17.5,49.5 Z"/></g>
<g><path style="opacity:0.196" fill="#d99a00" d="M 41.5,47.5 C 42.8333,48.1667 43.8333,49.1667 44.5,50.5C 44.5394,51.5832 44.8728,52.5832 45.5,53.5C 45.0431,54.2975 44.3764,54.6309 43.5,54.5C 43.5,54.1667 43.5,53.8333 43.5,53.5C 42.2702,51.7028 41.6036,49.7028 41.5,47.5 Z"/></g>
<g><path style="opacity:0.984" fill="#f8c308" d="M 51.5,44.5 C 51.5,45.1667 51.8333,45.5 52.5,45.5C 53.1667,46.8333 53.8333,48.1667 54.5,49.5C 54.5,50.5 54.5,51.5 54.5,52.5C 52.8333,52.5 51.1667,52.5 49.5,52.5C 49.1667,51.8333 48.8333,51.1667 48.5,50.5C 53.1173,50.6427 53.784,48.976 50.5,45.5C 50.6236,44.8933 50.9569,44.56 51.5,44.5 Z"/></g>
<g><path style="opacity:0.992" fill="#fcda17" d="M 58.5,42.5 C 58.8333,43.8333 59.1667,45.1667 59.5,46.5C 59.5569,47.609 59.8902,48.609 60.5,49.5C 59.6618,49.8417 59.3284,50.5084 59.5,51.5C 58.8333,51.5 58.1667,51.5 57.5,51.5C 58.494,49.6656 58.494,47.9989 57.5,46.5C 57.2322,44.901 57.5655,43.5676 58.5,42.5 Z"/></g>
<g><path style="opacity:0.992" fill="#fcda19" d="M 71.5,44.5 C 72.3543,45.6316 72.3543,46.965 71.5,48.5C 70.1667,49.5 70.1667,50.5 71.5,51.5C 71.5,51.8333 71.5,52.1667 71.5,52.5C 69.597,52.2041 67.9303,51.5375 66.5,50.5C 68.0269,50.573 69.0269,49.9063 69.5,48.5C 69.8333,47.8333 70.1667,47.1667 70.5,46.5C 70.8333,45.8333 71.1667,45.1667 71.5,44.5 Z"/></g>
<g><path style="opacity:0.553" fill="#edaf02" d="M 77.5,49.5 C 79.1436,49.8102 80.1436,50.8102 80.5,52.5C 79.609,53.1098 78.609,53.4431 77.5,53.5C 77.1115,52.3092 77.1115,50.9759 77.5,49.5 Z"/></g>
<g><path style="opacity:0.579" fill="#e9ab01" d="M 78.5,46.5 C 80.123,47.8256 81.123,49.1589 81.5,50.5C 82.7362,49.7542 84.0695,49.4208 85.5,49.5C 84.1667,50.5 82.8333,51.5 81.5,52.5C 81.1667,52.5 80.8333,52.5 80.5,52.5C 80.1436,50.8102 79.1436,49.8102 77.5,49.5C 77.5,48.8333 77.5,48.1667 77.5,47.5C 77.5,46.8333 77.8333,46.5 78.5,46.5 Z"/></g>
<g><path style="opacity:0.026" fill="#9c6800" d="M 102.5,52.5 C 101.127,52.6567 99.7932,52.49 98.5,52C 100.898,50.6437 103.398,49.4771 106,48.5C 106.167,48.8333 106.333,49.1667 106.5,49.5C 105.099,50.5207 103.765,51.5207 102.5,52.5 Z"/></g>
<g><path style="opacity:0.004" fill="#a77100" d="M 114.5,50.5 C 115.833,51.1667 115.833,51.1667 114.5,50.5 Z"/></g>
<g><path style="opacity:0.243" fill="#b97d00" d="M 33.5,50.5 C 35.7857,50.595 37.7857,51.2616 39.5,52.5C 39.1667,53.1667 38.8333,53.8333 38.5,54.5C 36.4261,53.4861 34.4261,52.4861 32.5,51.5C 32.5,50.8333 32.8333,50.5 33.5,50.5 Z"/></g>
<g><path style="opacity:0.965" fill="#f4ba03" d="M 77.5,47.5 C 77.5,48.1667 77.5,48.8333 77.5,49.5C 77.1115,50.9759 77.1115,52.3092 77.5,53.5C 77.2648,54.0967 76.7648,54.4301 76,54.5C 74.9889,53.9444 74.1556,53.2778 73.5,52.5C 74.1098,51.609 74.4431,50.609 74.5,49.5C 75.5,48.8333 76.5,48.1667 77.5,47.5 Z"/></g>
<g><path style="opacity:0.992" fill="#fde51d" d="M 54.5,49.5 C 55.5,50.1667 56.5,50.8333 57.5,51.5C 58.1667,51.5 58.8333,51.5 59.5,51.5C 59.2942,53.5492 58.4609,53.8825 57,52.5C 56.5357,53.0944 56.369,53.7611 56.5,54.5C 56.5,55.1667 56.1667,55.5 55.5,55.5C 54.3478,54.375 53.3478,54.375 52.5,55.5C 51.5,54.8333 50.5,54.1667 49.5,53.5C 49.5,53.1667 49.5,52.8333 49.5,52.5C 51.1667,52.5 52.8333,52.5 54.5,52.5C 54.5,51.5 54.5,50.5 54.5,49.5 Z"/></g>
<g><path style="opacity:0.992" fill="#fef327" d="M 60.5,49.5 C 60.5,50.8333 61.1667,51.5 62.5,51.5C 62.5,52.5 62.5,53.5 62.5,54.5C 60.7033,54.0651 58.7033,54.0651 56.5,54.5C 56.369,53.7611 56.5357,53.0944 57,52.5C 58.4609,53.8825 59.2942,53.5492 59.5,51.5C 59.3284,50.5084 59.6618,49.8417 60.5,49.5 Z"/></g>
<g><path style="opacity:0.992" fill="#fde421" d="M 74.5,49.5 C 74.4431,50.609 74.1098,51.609 73.5,52.5C 72.4502,52.9046 72.4502,53.5712 73.5,54.5C 74.325,55.3857 75.325,55.719 76.5,55.5C 76.5,55.8333 76.5,56.1667 76.5,56.5C 75.8333,56.8333 75.1667,57.1667 74.5,57.5C 74.1583,56.6618 73.4916,56.3284 72.5,56.5C 71.7659,55.2921 71.4326,53.9587 71.5,52.5C 71.5,52.1667 71.5,51.8333 71.5,51.5C 72.5,50.8333 73.5,50.1667 74.5,49.5 Z"/></g>
<g><path style="opacity:0.078" fill="#c18400" d="M 93.5,47.5 C 94.1667,48.1667 94.8333,48.8333 95.5,49.5C 92.9684,50.5957 90.6351,51.9291 88.5,53.5C 87.5084,53.3284 86.8417,53.6618 86.5,54.5C 85.8333,54.1667 85.1667,53.8333 84.5,53.5C 84.5,53.1667 84.5,52.8333 84.5,52.5C 86.3075,50.4242 88.6408,49.0909 91.5,48.5C 92.1667,48.1667 92.8333,47.8333 93.5,47.5 Z"/></g>
<g><path style="opacity:0.071" fill="#926000" d="M 106.5,53.5 C 105.508,53.6716 104.842,53.3382 104.5,52.5C 107.003,51.9155 109.503,51.2489 112,50.5C 114,51.1667 114,51.8333 112,52.5C 110.234,53.2335 108.401,53.5668 106.5,53.5 Z"/></g>
<g><path style="opacity:0.528" fill="#ebad02" d="M 44.5,50.5 C 46.1667,51.1667 47.8333,51.8333 49.5,52.5C 49.5,52.8333 49.5,53.1667 49.5,53.5C 49.6495,54.552 49.4828,55.552 49,56.5C 48.31,55.2617 47.81,55.2617 47.5,56.5C 46.5,55.1667 45.5,55.1667 44.5,56.5C 44.0825,55.7784 43.4158,55.2784 42.5,55C 42.7284,54.6012 43.0618,54.4346 43.5,54.5C 44.3764,54.6309 45.0431,54.2975 45.5,53.5C 44.8728,52.5832 44.5394,51.5832 44.5,50.5 Z"/></g>
<g><path style="opacity:0.996" fill="#fef936" d="M 72.5,56.5 C 73.4916,56.3284 74.1583,56.6618 74.5,57.5C 73.8333,57.5 73.5,57.8333 73.5,58.5C 72.391,58.5569 71.391,58.8902 70.5,59.5C 69.147,58.4739 68.147,57.1405 67.5,55.5C 66.0813,54.5489 64.4147,54.2155 62.5,54.5C 62.5,53.5 62.5,52.5 62.5,51.5C 62.4346,51.0618 62.6012,50.7284 63,50.5C 66.0304,52.7794 69.1971,54.7794 72.5,56.5 Z"/></g>
<g><path style="opacity:0.992" fill="#fcda1f" d="M 73.5,52.5 C 74.1556,53.2778 74.9889,53.9444 76,54.5C 76.7648,54.4301 77.2648,54.0967 77.5,53.5C 78.609,53.4431 79.609,53.1098 80.5,52.5C 80.8333,52.5 81.1667,52.5 81.5,52.5C 81.5,52.8333 81.5,53.1667 81.5,53.5C 80.2905,53.9321 79.2905,54.5987 78.5,55.5C 77.8333,55.5 77.1667,55.5 76.5,55.5C 75.325,55.719 74.325,55.3857 73.5,54.5C 72.4502,53.5712 72.4502,52.9046 73.5,52.5 Z"/></g>
<g><path style="opacity:0.106" fill="#9b6700" d="M 102.5,52.5 C 103.167,52.5 103.833,52.5 104.5,52.5C 104.842,53.3382 105.508,53.6716 106.5,53.5C 104.786,54.7384 102.786,55.405 100.5,55.5C 100.167,54.8333 99.8333,54.1667 99.5,53.5C 100.791,53.7373 101.791,53.404 102.5,52.5 Z"/></g>
<g><path style="opacity:0.02" fill="#a97200" d="M 37.5,56.5 C 37.5,57.1667 37.5,57.8333 37.5,58.5C 31.8755,57.4767 26.5422,55.6434 21.5,53C 26.9673,53.7261 32.3006,54.8928 37.5,56.5 Z"/></g>
<g><path style="opacity:0.996" fill="#fefa3e" d="M 62.5,54.5 C 64.4147,54.2155 66.0813,54.5489 67.5,55.5C 64.4299,55.3677 61.4299,55.701 58.5,56.5C 57.209,56.7373 56.209,56.404 55.5,55.5C 56.1667,55.5 56.5,55.1667 56.5,54.5C 58.7033,54.0651 60.7033,54.0651 62.5,54.5 Z"/></g>
<g><path style="opacity:0.045" fill="#c78900" d="M 84.5,53.5 C 85.1667,53.8333 85.8333,54.1667 86.5,54.5C 87.4916,54.6716 88.1583,54.3382 88.5,53.5C 89.8333,53.5 91.1667,53.5 92.5,53.5C 93.1667,53.5 93.5,53.8333 93.5,54.5C 93.1667,54.5 92.8333,54.5 92.5,54.5C 91.7784,54.9175 91.2784,55.5842 91,56.5C 90.6174,55.944 90.1174,55.6107 89.5,55.5C 88.5084,55.3284 87.8417,55.6618 87.5,56.5C 86.2618,57.4124 84.9285,57.5791 83.5,57C 83.6191,55.8552 83.9524,54.6885 84.5,53.5 Z"/></g>
<g><path style="opacity:0.114" fill="#a77000" d="M 92.5,53.5 C 93.8892,54.2369 96.2225,54.2369 99.5,53.5C 99.8333,54.1667 100.167,54.8333 100.5,55.5C 98.6208,56.3414 96.6208,56.6747 94.5,56.5C 94.5,55.8333 94.1667,55.5 93.5,55.5C 93.5,55.1667 93.5,54.8333 93.5,54.5C 93.5,53.8333 93.1667,53.5 92.5,53.5 Z"/></g>
<g><path style="opacity:0.358" fill="#e0a100" d="M 39.5,52.5 C 40.1667,52.5 40.8333,52.5 41.5,52.5C 41.8417,53.3382 42.5084,53.6716 43.5,53.5C 43.5,53.8333 43.5,54.1667 43.5,54.5C 43.0618,54.4346 42.7284,54.6012 42.5,55C 43.4158,55.2784 44.0825,55.7784 44.5,56.5C 43.7672,58.2503 43.4338,59.917 43.5,61.5C 41.8333,61.5 40.1667,61.5 38.5,61.5C 38.5,61.1667 38.5,60.8333 38.5,60.5C 38.8333,60.5 39.1667,60.5 39.5,60.5C 43.211,58.2253 43.211,56.2253 39.5,54.5C 39.1667,54.5 38.8333,54.5 38.5,54.5C 38.8333,53.8333 39.1667,53.1667 39.5,52.5 Z"/></g>
<g><path style="opacity:0.643" fill="#edb103" d="M 81.5,53.5 C 80.1667,55.1667 80.1667,56.8333 81.5,58.5C 78.4331,58.8795 77.4331,57.8795 78.5,55.5C 79.2905,54.5987 80.2905,53.9321 81.5,53.5 Z"/></g>
<g><path style="opacity:0.59" fill="#edb102" d="M 47.5,56.5 C 46.438,58.2341 46.438,59.9008 47.5,61.5C 46.1667,61.5 44.8333,61.5 43.5,61.5C 43.4338,59.917 43.7672,58.2503 44.5,56.5C 45.5,55.1667 46.5,55.1667 47.5,56.5 Z"/></g>
<g><path style="opacity:0.952" fill="#f7c007" d="M 49.5,53.5 C 50.5,54.1667 51.5,54.8333 52.5,55.5C 51.7278,58.2386 50.0612,60.2386 47.5,61.5C 46.438,59.9008 46.438,58.2341 47.5,56.5C 47.81,55.2617 48.31,55.2617 49,56.5C 49.4828,55.552 49.6495,54.552 49.5,53.5 Z"/></g>
<g><path style="opacity:0.996" fill="#fefe6d" d="M 67.5,55.5 C 68.147,57.1405 69.147,58.4739 70.5,59.5C 69.8333,59.5 69.5,59.8333 69.5,60.5C 68.1634,59.6851 67.1634,58.5185 66.5,57C 64.6131,56.2204 62.9464,56.3871 61.5,57.5C 59.0882,57.6941 58.0882,59.0274 58.5,61.5C 58.5,61.8333 58.5,62.1667 58.5,62.5C 57.5655,63.5676 57.2322,64.901 57.5,66.5C 56.5655,65.4324 56.2322,64.099 56.5,62.5C 57.7279,60.9902 57.7279,59.4902 56.5,58C 57.4158,57.7216 58.0825,57.2216 58.5,56.5C 61.4299,55.701 64.4299,55.3677 67.5,55.5 Z"/></g>
<g><path style="opacity:0.984" fill="#f5bc06" d="M 76.5,55.5 C 77.1667,55.5 77.8333,55.5 78.5,55.5C 77.4331,57.8795 78.4331,58.8795 81.5,58.5C 80.8333,59.5 80.1667,60.5 79.5,61.5C 78.448,61.6495 77.448,61.4828 76.5,61C 76.9662,59.7012 76.9662,58.2012 76.5,56.5C 76.5,56.1667 76.5,55.8333 76.5,55.5 Z"/></g>
<g><path style="opacity:0.243" fill="#ba7e00" d="M 92.5,54.5 C 92.5,55.1667 92.8333,55.5 93.5,55.5C 94.1667,55.5 94.5,55.8333 94.5,56.5C 92.6115,57.322 90.6115,58.1553 88.5,59C 89.056,59.3826 89.3893,59.8826 89.5,60.5C 88.1667,60.5 87.5,59.8333 87.5,58.5C 87.5,57.8333 87.5,57.1667 87.5,56.5C 88.4916,56.6716 89.1583,56.3382 89.5,55.5C 90.1174,55.6107 90.6174,55.944 91,56.5C 91.2784,55.5842 91.7784,54.9175 92.5,54.5 Z"/></g>
<g><path style="opacity:0.996" fill="#fefe9b" d="M 61.5,57.5 C 64.285,56.9162 65.9517,57.9162 66.5,60.5C 63.6472,58.2081 60.9806,58.5415 58.5,61.5C 58.0882,59.0274 59.0882,57.6941 61.5,57.5 Z"/></g>
<g><path style="opacity:0.996" fill="#fefe83" d="M 61.5,57.5 C 62.9464,56.3871 64.6131,56.2204 66.5,57C 67.1634,58.5185 68.1634,59.6851 69.5,60.5C 69.8333,60.5 70.1667,60.5 70.5,60.5C 72.0781,62.3747 71.7448,63.7081 69.5,64.5C 69.1898,62.8564 68.1898,61.8564 66.5,61.5C 66.5,61.1667 66.5,60.8333 66.5,60.5C 65.9517,57.9162 64.285,56.9162 61.5,57.5 Z"/></g>
<g><path style="opacity:0.364" fill="#e2a300" d="M 84.5,52.5 C 84.5,52.8333 84.5,53.1667 84.5,53.5C 83.9524,54.6885 83.6191,55.8552 83.5,57C 84.9285,57.5791 86.2618,57.4124 87.5,56.5C 87.5,57.1667 87.5,57.8333 87.5,58.5C 85.9731,58.427 84.9731,59.0937 84.5,60.5C 83.7777,59.4489 82.7777,58.7822 81.5,58.5C 80.1667,56.8333 80.1667,55.1667 81.5,53.5C 82.391,52.8902 83.391,52.5569 84.5,52.5 Z"/></g>
<g><path style="opacity:0.094" fill="#c08300" d="M 39.5,54.5 C 43.211,56.2253 43.211,58.2253 39.5,60.5C 39.1667,59.5 38.5,58.8333 37.5,58.5C 37.5,57.8333 37.5,57.1667 37.5,56.5C 39.9935,56.8693 40.6602,56.2027 39.5,54.5 Z"/></g>
<g><path style="opacity:0.996" fill="#fefebb" d="M 66.5,60.5 C 66.5,60.8333 66.5,61.1667 66.5,61.5C 66.5,61.8333 66.5,62.1667 66.5,62.5C 62.5217,59.8201 60.855,60.8201 61.5,65.5C 59.5,65.5 58.5,64.5 58.5,62.5C 58.5,62.1667 58.5,61.8333 58.5,61.5C 60.9806,58.5415 63.6472,58.2081 66.5,60.5 Z"/></g>
<g><path style="opacity:0.992" fill="#fad517" d="M 76.5,56.5 C 76.9662,58.2012 76.9662,59.7012 76.5,61C 77.448,61.4828 78.448,61.6495 79.5,61.5C 81.1667,61.5 82.8333,61.5 84.5,61.5C 84.1667,62.1667 83.8333,62.8333 83.5,63.5C 82.1667,63.5 80.8333,63.5 79.5,63.5C 78.5,63.5 77.5,63.5 76.5,63.5C 75.075,62.078 74.075,60.4113 73.5,58.5C 73.5,57.8333 73.8333,57.5 74.5,57.5C 75.1667,57.1667 75.8333,56.8333 76.5,56.5 Z"/></g>
<g><path style="opacity:0.511" fill="#eaac01" d="M 81.5,58.5 C 82.7777,58.7822 83.7777,59.4489 84.5,60.5C 85.4916,60.3284 86.1583,60.6618 86.5,61.5C 85.8333,61.5 85.1667,61.5 84.5,61.5C 82.8333,61.5 81.1667,61.5 79.5,61.5C 80.1667,60.5 80.8333,59.5 81.5,58.5 Z"/></g>
<g><path style="opacity:0.004" fill="#a26c00" d="M 13.5,60.5 C 13.1667,61.1667 12.8333,61.8333 12.5,62.5C 9.8127,62.6641 7.14603,62.4974 4.5,62C 7.3926,60.8512 10.3926,60.3512 13.5,60.5 Z"/></g>
<g><path style="opacity:0.059" fill="#c78900" d="M 23.5,60.5 C 28.5,60.5 33.5,60.5 38.5,60.5C 38.5,60.8333 38.5,61.1667 38.5,61.5C 38.1667,61.5 37.8333,61.5 37.5,61.5C 34.8127,61.3359 32.146,61.5026 29.5,62C 30.056,62.3826 30.3893,62.8826 30.5,63.5C 28.1667,63.5 25.8333,63.5 23.5,63.5C 23.5,62.5 23.5,61.5 23.5,60.5 Z"/></g>
<g><path style="opacity:0.996" fill="#fef32a" d="M 53.5,56.5 C 54.8366,57.3149 55.8366,58.4815 56.5,60C 54.7669,61.1889 53.1002,62.3556 51.5,63.5C 50.8333,63.5 50.1667,63.5 49.5,63.5C 50.1047,61.9743 51.2714,60.9743 53,60.5C 53.49,59.2068 53.6567,57.8734 53.5,56.5 Z"/></g>
<g><path style="opacity:0.992" fill="#fdffd6" d="M 66.5,62.5 C 65.9517,65.0838 64.285,66.0838 61.5,65.5C 60.855,60.8201 62.5217,59.8201 66.5,62.5 Z"/></g>
<g><path style="opacity:0.078" fill="#cf9100" d="M 87.5,58.5 C 87.5,59.8333 88.1667,60.5 89.5,60.5C 94.1667,60.5 98.8333,60.5 103.5,60.5C 103.611,61.1174 103.944,61.6174 104.5,62C 103.584,62.2784 102.918,62.7784 102.5,63.5C 99.1667,63.5 95.8333,63.5 92.5,63.5C 92.1667,63.5 91.8333,63.5 91.5,63.5C 90.5,63.5 89.5,63.5 88.5,63.5C 89.9516,62.6981 91.6183,62.1981 93.5,62C 91.1902,61.5034 88.8568,61.3367 86.5,61.5C 86.1583,60.6618 85.4916,60.3284 84.5,60.5C 84.9731,59.0937 85.9731,58.427 87.5,58.5 Z"/></g>
<g><path style="opacity:0.725" fill="#e3a401" d="M 37.5,61.5 C 38.6715,62.3446 40.0048,63.0113 41.5,63.5C 42.0065,64.8589 43.0065,65.8589 44.5,66.5C 44.3764,67.1067 44.0431,67.44 43.5,67.5C 42.4324,66.5655 41.099,66.2322 39.5,66.5C 39.7373,65.209 39.404,64.209 38.5,63.5C 35.8333,63.5 33.1667,63.5 30.5,63.5C 30.3893,62.8826 30.056,62.3826 29.5,62C 32.146,61.5026 34.8127,61.3359 37.5,61.5 Z"/></g>
<g><path style="opacity:0.961" fill="#f6c917" d="M 37.5,61.5 C 37.8333,61.5 38.1667,61.5 38.5,61.5C 40.1667,61.5 41.8333,61.5 43.5,61.5C 44.8333,61.5 46.1667,61.5 47.5,61.5C 47.5,62.1667 47.5,62.8333 47.5,63.5C 47.1667,63.5 46.8333,63.5 46.5,63.5C 44.8333,63.5 43.1667,63.5 41.5,63.5C 40.0048,63.0113 38.6715,62.3446 37.5,61.5 Z"/></g>
<g><path style="opacity:0.996" fill="#fefc4a" d="M 52.5,55.5 C 53.3478,54.375 54.3478,54.375 55.5,55.5C 56.209,56.404 57.209,56.7373 58.5,56.5C 58.0825,57.2216 57.4158,57.7216 56.5,58C 57.7279,59.4902 57.7279,60.9902 56.5,62.5C 55.5084,62.3284 54.8417,62.6618 54.5,63.5C 53.5,63.5 52.5,63.5 51.5,63.5C 53.1002,62.3556 54.7669,61.1889 56.5,60C 55.8366,58.4815 54.8366,57.3149 53.5,56.5C 53.5,55.8333 53.1667,55.5 52.5,55.5 Z"/></g>
<g><path style="opacity:0.996" fill="#fefeb4" d="M 66.5,61.5 C 68.1898,61.8564 69.1898,62.8564 69.5,64.5C 67.9323,65.8695 66.099,66.8695 64,67.5C 63.0053,66.9341 62.172,66.2674 61.5,65.5C 64.285,66.0838 65.9517,65.0838 66.5,62.5C 66.5,62.1667 66.5,61.8333 66.5,61.5 Z"/></g>
<g><path style="opacity:0.106" fill="#956200" d="M 103.5,60.5 C 108.566,60.3399 113.566,60.8399 118.5,62C 113.191,62.8493 107.858,63.3493 102.5,63.5C 102.918,62.7784 103.584,62.2784 104.5,62C 103.944,61.6174 103.611,61.1174 103.5,60.5 Z"/></g>
<g><path style="opacity:0.008" fill="#926100" d="M 13.5,60.5 C 16.8333,60.5 20.1667,60.5 23.5,60.5C 23.5,61.5 23.5,62.5 23.5,63.5C 19.7852,63.577 16.1185,63.2436 12.5,62.5C 12.8333,61.8333 13.1667,61.1667 13.5,60.5 Z"/></g>
<g><path style="opacity:0.992" fill="#fcdc1c" d="M 52.5,55.5 C 53.1667,55.5 53.5,55.8333 53.5,56.5C 53.6567,57.8734 53.49,59.2068 53,60.5C 51.2714,60.9743 50.1047,61.9743 49.5,63.5C 49.1667,63.5 48.8333,63.5 48.5,63.5C 48.1667,63.5 47.8333,63.5 47.5,63.5C 47.5,62.8333 47.5,62.1667 47.5,61.5C 50.0612,60.2386 51.7278,58.2386 52.5,55.5 Z"/></g>
<g><path style="opacity:0.996" fill="#fdeb28" d="M 73.5,58.5 C 74.075,60.4113 75.075,62.078 76.5,63.5C 76.5668,65.4008 76.2335,67.2341 75.5,69C 75.7483,70.7491 76.7483,71.5824 78.5,71.5C 78.8333,72.5 79.5,73.1667 80.5,73.5C 79.3684,74.3543 78.035,74.3543 76.5,73.5C 76.1667,72.5 75.5,71.8333 74.5,71.5C 74.5,70.8333 74.1667,70.5 73.5,70.5C 73.5,70.1667 73.5,69.8333 73.5,69.5C 72.7249,67.6119 72.7249,65.6119 73.5,63.5C 73.1436,61.8102 72.1436,60.8102 70.5,60.5C 70.1667,60.5 69.8333,60.5 69.5,60.5C 69.5,59.8333 69.8333,59.5 70.5,59.5C 71.391,58.8902 72.391,58.5569 73.5,58.5 Z"/></g>
<g><path style="opacity:0.622" fill="#eeb506" d="M 84.5,61.5 C 85.1667,61.5 85.8333,61.5 86.5,61.5C 88.8568,61.3367 91.1902,61.5034 93.5,62C 91.6183,62.1981 89.9516,62.6981 88.5,63.5C 87.5,63.5 86.5,63.5 85.5,63.5C 84.8333,63.5 84.1667,63.5 83.5,63.5C 83.8333,62.8333 84.1667,62.1667 84.5,61.5 Z"/></g>
<g><path style="opacity:0.569" fill="#eaac01" d="M 41.5,63.5 C 43.1667,63.5 44.8333,63.5 46.5,63.5C 47.045,64.9639 47.045,66.6306 46.5,68.5C 45.209,68.7373 44.209,68.404 43.5,67.5C 44.0431,67.44 44.3764,67.1067 44.5,66.5C 43.0065,65.8589 42.0065,64.8589 41.5,63.5 Z"/></g>
<g><path style="opacity:0.992" fill="#fde51f" d="M 49.5,63.5 C 50.1667,63.5 50.8333,63.5 51.5,63.5C 52.5,63.5 53.5,63.5 54.5,63.5C 54.822,65.7224 54.1554,67.5557 52.5,69C 53.0944,69.4643 53.7611,69.631 54.5,69.5C 56.3497,70.2418 57.0164,71.2418 56.5,72.5C 56.44,73.0431 56.1067,73.3764 55.5,73.5C 54.0858,70.2498 52.4191,69.9165 50.5,72.5C 50.1667,72.5 49.8333,72.5 49.5,72.5C 47.0673,72.2144 47.0673,71.5477 49.5,70.5C 50.4778,70.189 51.1445,69.5223 51.5,68.5C 50.8256,66.8045 50.1589,65.1379 49.5,63.5 Z"/></g>
<g><path style="opacity:0.503" fill="#e8a901" d="M 79.5,63.5 C 80.8333,63.5 82.1667,63.5 83.5,63.5C 84.1667,63.5 84.8333,63.5 85.5,63.5C 86.6016,65.0919 85.935,65.9252 83.5,66C 84.056,66.3826 84.3893,66.8826 84.5,67.5C 83.8333,67.5 83.1667,67.5 82.5,67.5C 81.7375,66.7321 80.7375,66.2321 79.5,66C 80.5981,65.2303 80.5981,64.397 79.5,63.5 Z"/></g>
<g><path style="opacity:0.996" fill="#fefc4d" d="M 70.5,60.5 C 72.1436,60.8102 73.1436,61.8102 73.5,63.5C 72.5,64.5 71.5,65.5 70.5,66.5C 69.6618,66.1583 69.3284,65.4916 69.5,64.5C 71.7448,63.7081 72.0781,62.3747 70.5,60.5 Z"/></g>
<g><path style="opacity:0.11" fill="#cc8d00" d="M 85.5,63.5 C 86.5,63.5 87.5,63.5 88.5,63.5C 88.8417,64.3382 89.5084,64.6716 90.5,64.5C 90.5,65.1667 90.5,65.8333 90.5,66.5C 89.5,66.8333 88.8333,67.5 88.5,68.5C 87.5084,68.6716 86.8417,68.3382 86.5,67.5C 85.8333,67.5 85.1667,67.5 84.5,67.5C 84.3893,66.8826 84.056,66.3826 83.5,66C 85.935,65.9252 86.6016,65.0919 85.5,63.5 Z"/></g>
<g><path style="opacity:0.204" fill="#bf8100" d="M 38.5,63.5 C 39.404,64.209 39.7373,65.209 39.5,66.5C 41.099,66.2322 42.4324,66.5655 43.5,67.5C 42.391,67.5569 41.391,67.8902 40.5,68.5C 38.0521,67.5269 35.3854,67.1936 32.5,67.5C 32.8333,66.8333 33.1667,66.1667 33.5,65.5C 35.5529,65.5979 37.2196,64.9313 38.5,63.5 Z"/></g>
<g><path style="opacity:0.992" fill="#fef936" d="M 73.5,63.5 C 72.7249,65.6119 72.7249,67.6119 73.5,69.5C 70.5,70.1667 67.5,70.8333 64.5,71.5C 65.6053,69.7769 67.2719,68.7769 69.5,68.5C 71.6977,68.5912 72.0311,67.9245 70.5,66.5C 71.5,65.5 72.5,64.5 73.5,63.5 Z"/></g>
<g><path style="opacity:0.029" fill="#a26d00" d="M 91.5,63.5 C 91.8333,63.5 92.1667,63.5 92.5,63.5C 94.4746,65.09 96.8079,66.2567 99.5,67C 96.408,67.7358 93.408,67.5691 90.5,66.5C 90.5,65.8333 90.5,65.1667 90.5,64.5C 91.1667,64.5 91.5,64.1667 91.5,63.5 Z"/></g>
<g><path style="opacity:0.042" fill="#a26c00" d="M 33.5,65.5 C 33.1667,66.1667 32.8333,66.8333 32.5,67.5C 28.6013,68.7606 24.6013,69.2606 20.5,69C 24.6025,67.1433 28.9358,65.9766 33.5,65.5 Z"/></g>
<g><path style="opacity:0.996" fill="#fefe67" d="M 54.5,63.5 C 54.8417,62.6618 55.5084,62.3284 56.5,62.5C 56.2322,64.099 56.5655,65.4324 57.5,66.5C 59.403,66.7959 61.0697,67.4625 62.5,68.5C 60.139,68.3259 57.8056,67.9926 55.5,67.5C 55.7678,65.901 55.4345,64.5676 54.5,63.5 Z"/></g>
<g><path style="opacity:0.996" fill="#fefe8a" d="M 58.5,62.5 C 58.5,64.5 59.5,65.5 61.5,65.5C 62.172,66.2674 63.0053,66.9341 64,67.5C 66.099,66.8695 67.9323,65.8695 69.5,64.5C 69.3284,65.4916 69.6618,66.1583 70.5,66.5C 72.0311,67.9245 71.6977,68.5912 69.5,68.5C 67.412,68.1348 65.0787,68.1348 62.5,68.5C 61.0697,67.4625 59.403,66.7959 57.5,66.5C 57.2322,64.901 57.5655,63.5676 58.5,62.5 Z"/></g>
<g><path style="opacity:0.351" fill="#dfa000" d="M 43.5,67.5 C 44.209,68.404 45.209,68.7373 46.5,68.5C 46.8799,70.698 46.2132,72.3646 44.5,73.5C 43.8333,73.5 43.1667,73.5 42.5,73.5C 42.33,72.1779 42.6634,71.0113 43.5,70C 42.9056,69.5357 42.2389,69.369 41.5,69.5C 40.8333,69.5 40.5,69.1667 40.5,68.5C 41.391,67.8902 42.391,67.5569 43.5,67.5 Z"/></g>
<g><path style="opacity:0.992" fill="#fbcf0b" d="M 48.5,63.5 C 48.8333,63.5 49.1667,63.5 49.5,63.5C 50.1589,65.1379 50.8256,66.8045 51.5,68.5C 51.1445,69.5223 50.4778,70.189 49.5,70.5C 49.0074,68.1944 48.6741,65.861 48.5,63.5 Z"/></g>
<g><path style="opacity:0.886" fill="#f6c007" d="M 76.5,63.5 C 77.5,63.5 78.5,63.5 79.5,63.5C 80.5981,64.397 80.5981,65.2303 79.5,66C 80.7375,66.2321 81.7375,66.7321 82.5,67.5C 79.5,67.1667 78.1667,68.5 78.5,71.5C 76.7483,71.5824 75.7483,70.7491 75.5,69C 76.2335,67.2341 76.5668,65.4008 76.5,63.5 Z"/></g>
<g><path style="opacity:0.886" fill="#f3bd0b" d="M 46.5,63.5 C 46.8333,63.5 47.1667,63.5 47.5,63.5C 47.8333,63.5 48.1667,63.5 48.5,63.5C 48.6741,65.861 49.0074,68.1944 49.5,70.5C 47.0673,71.5477 47.0673,72.2144 49.5,72.5C 47.9236,73.1429 46.5903,74.1429 45.5,75.5C 44.8333,75.5 44.1667,75.5 43.5,75.5C 43.8333,74.8333 44.1667,74.1667 44.5,73.5C 46.2132,72.3646 46.8799,70.698 46.5,68.5C 47.045,66.6306 47.045,64.9639 46.5,63.5 Z"/></g>
<g><path style="opacity:0.996" fill="#fefc4f" d="M 69.5,68.5 C 67.2719,68.7769 65.6053,69.7769 64.5,71.5C 63.8333,71.5 63.1667,71.5 62.5,71.5C 62.5,70.5 62.5,69.5 62.5,68.5C 65.0787,68.1348 67.412,68.1348 69.5,68.5 Z"/></g>
<g><path style="opacity:0.992" fill="#fef93a" d="M 54.5,63.5 C 55.4345,64.5676 55.7678,65.901 55.5,67.5C 57.8056,67.9926 60.139,68.3259 62.5,68.5C 62.5,69.5 62.5,70.5 62.5,71.5C 61.3478,70.375 60.3478,70.375 59.5,71.5C 58.1851,70.5244 56.8518,69.5244 55.5,68.5C 54.8933,68.6236 54.56,68.9569 54.5,69.5C 53.7611,69.631 53.0944,69.4643 52.5,69C 54.1554,67.5557 54.822,65.7224 54.5,63.5 Z"/></g>
<g><path style="opacity:0.584" fill="#edb104" d="M 82.5,67.5 C 83.1667,67.5 83.8333,67.5 84.5,67.5C 83.2825,68.1614 81.9492,68.8281 80.5,69.5C 81.3629,70.7264 81.3629,72.0597 80.5,73.5C 79.5,73.1667 78.8333,72.5 78.5,71.5C 78.1667,68.5 79.5,67.1667 82.5,67.5 Z"/></g>
<g><path style="opacity:0.042" fill="#c48700" d="M 88.5,69.5 C 88.5,69.8333 88.5,70.1667 88.5,70.5C 87.1667,71.5 87.1667,72.5 88.5,73.5C 88.1583,74.3382 87.4916,74.6716 86.5,74.5C 85.8333,74.5 85.1667,74.5 84.5,74.5C 84.5,74.1667 84.5,73.8333 84.5,73.5C 85.4387,72.6726 85.1054,72.0059 83.5,71.5C 82.9569,71.44 82.6236,71.1067 82.5,70.5C 84.396,69.5344 86.396,69.2011 88.5,69.5 Z"/></g>
<g><path style="opacity:0.333" fill="#c48700" d="M 88.5,68.5 C 91.9032,68.8511 95.2365,69.5178 98.5,70.5C 97.4324,71.4345 96.099,71.7678 94.5,71.5C 92.5,71.1667 90.5,70.8333 88.5,70.5C 88.5,70.1667 88.5,69.8333 88.5,69.5C 88.5,69.1667 88.5,68.8333 88.5,68.5 Z"/></g>
<g><path style="opacity:0.204" fill="#c28400" d="M 40.5,68.5 C 40.5,69.1667 40.8333,69.5 41.5,69.5C 41.5,70.1667 41.1667,70.5 40.5,70.5C 39.5084,70.3284 38.8417,70.6618 38.5,71.5C 37.5,71.5 36.5,71.5 35.5,71.5C 34.8333,71.5 34.5,71.1667 34.5,70.5C 36.2143,69.2616 38.2143,68.595 40.5,68.5 Z"/></g>
<g><path style="opacity:0.992" fill="#fdf022" d="M 73.5,69.5 C 73.5,69.8333 73.5,70.1667 73.5,70.5C 72.2502,70.5774 71.4169,71.244 71,72.5C 69.5391,71.1175 68.7058,71.4508 68.5,73.5C 66.4389,72.3183 64.9389,72.9849 64,75.5C 63.6174,74.944 63.1174,74.6107 62.5,74.5C 62.1898,72.8564 61.1898,71.8564 59.5,71.5C 60.3478,70.375 61.3478,70.375 62.5,71.5C 63.1667,71.5 63.8333,71.5 64.5,71.5C 67.5,70.8333 70.5,70.1667 73.5,69.5 Z"/></g>
<g><path style="opacity:0.319" fill="#e5a600" d="M 84.5,67.5 C 85.1667,67.5 85.8333,67.5 86.5,67.5C 86.8417,68.3382 87.5084,68.6716 88.5,68.5C 88.5,68.8333 88.5,69.1667 88.5,69.5C 86.396,69.2011 84.396,69.5344 82.5,70.5C 82.6236,71.1067 82.9569,71.44 83.5,71.5C 82.8333,72.1667 82.1667,72.8333 81.5,73.5C 81.1667,73.5 80.8333,73.5 80.5,73.5C 81.3629,72.0597 81.3629,70.7264 80.5,69.5C 81.9492,68.8281 83.2825,68.1614 84.5,67.5 Z"/></g>
<g><path style="opacity:0.992" fill="#fde71a" d="M 54.5,69.5 C 54.56,68.9569 54.8933,68.6236 55.5,68.5C 56.8518,69.5244 58.1851,70.5244 59.5,71.5C 61.1898,71.8564 62.1898,72.8564 62.5,74.5C 61.391,74.5569 60.391,74.8902 59.5,75.5C 59.6068,73.6214 59.1068,73.2881 58,74.5C 57.7216,73.5842 57.2216,72.9175 56.5,72.5C 57.0164,71.2418 56.3497,70.2418 54.5,69.5 Z"/></g>
<g><path style="opacity:0.992" fill="#fde016" d="M 73.5,70.5 C 74.1667,70.5 74.5,70.8333 74.5,71.5C 73.6236,71.3691 72.9569,71.7025 72.5,72.5C 73.3256,73.451 73.4922,74.451 73,75.5C 72.1841,74.1772 71.0174,73.5106 69.5,73.5C 69.1667,73.5 68.8333,73.5 68.5,73.5C 68.7058,71.4508 69.5391,71.1175 71,72.5C 71.4169,71.244 72.2502,70.5774 73.5,70.5 Z"/></g>
<g><path style="opacity:0.106" fill="#9e6900" d="M 98.5,70.5 C 101.067,71.475 103.733,72.1417 106.5,72.5C 105.432,73.4345 104.099,73.7678 102.5,73.5C 99.5718,73.4349 96.9052,72.7682 94.5,71.5C 96.099,71.7678 97.4324,71.4345 98.5,70.5 Z"/></g>
<g><path style="opacity:0.141" fill="#986500" d="M 34.5,70.5 C 34.5,71.1667 34.8333,71.5 35.5,71.5C 27.1925,74.9102 18.5258,77.0769 9.5,78C 17.7023,74.9874 26.0356,72.4874 34.5,70.5 Z"/></g>
<g><path style="opacity:0.094" fill="#b27800" d="M 41.5,69.5 C 42.2389,69.369 42.9056,69.5357 43.5,70C 42.6634,71.0113 42.33,72.1779 42.5,73.5C 42.5,74.1667 42.1667,74.5 41.5,74.5C 40.8333,73.1667 40.1667,73.1667 39.5,74.5C 36.4037,75.5467 33.4037,76.88 30.5,78.5C 30.1667,78.1667 29.8333,77.8333 29.5,77.5C 32.7376,75.7247 35.7376,73.7247 38.5,71.5C 39.4916,71.6716 40.1583,71.3382 40.5,70.5C 41.1667,70.5 41.5,70.1667 41.5,69.5 Z"/></g>
<g><path style="opacity:0.604" fill="#e9ac01" d="M 49.5,72.5 C 49.8333,72.5 50.1667,72.5 50.5,72.5C 52.1042,73.287 52.7709,74.6203 52.5,76.5C 51.8333,76.8333 51.1667,77.1667 50.5,77.5C 49.5313,76.6906 48.6979,75.6906 48,74.5C 47.3292,75.2524 46.4959,75.5858 45.5,75.5C 46.5903,74.1429 47.9236,73.1429 49.5,72.5 Z"/></g>
<g><path style="opacity:0.992" fill="#fcda14" d="M 68.5,73.5 C 68.8333,73.5 69.1667,73.5 69.5,73.5C 69.7373,74.791 69.404,75.791 68.5,76.5C 67.7211,74.0728 66.5545,74.0728 65,76.5C 64.6667,78.1667 64.3333,79.8333 64,81.5C 63.4867,80.4734 62.9867,79.4734 62.5,78.5C 62.5,77.1667 62.5,75.8333 62.5,74.5C 63.1174,74.6107 63.6174,74.944 64,75.5C 64.9389,72.9849 66.4389,72.3183 68.5,73.5 Z"/></g>
<g><path style="opacity:0.106" fill="#905f00" d="M 106.5,72.5 C 108.306,73.0241 109.972,73.6908 111.5,74.5C 111.5,74.8333 111.5,75.1667 111.5,75.5C 108.171,75.7847 105.171,75.1181 102.5,73.5C 104.099,73.7678 105.432,73.4345 106.5,72.5 Z"/></g>
<g><path style="opacity:0.878" fill="#f7c810" d="M 56.5,72.5 C 57.2216,72.9175 57.7216,73.5842 58,74.5C 59.1068,73.2881 59.6068,73.6214 59.5,75.5C 58.5084,75.3284 57.8417,75.6618 57.5,76.5C 56.8333,78.5 56.1667,80.5 55.5,82.5C 54.596,81.791 54.2627,80.791 54.5,79.5C 56.3003,78.1052 56.6336,76.4385 55.5,74.5C 54.4822,75.1925 53.4822,75.8592 52.5,76.5C 52.7709,74.6203 52.1042,73.287 50.5,72.5C 52.4191,69.9165 54.0858,70.2498 55.5,73.5C 56.1067,73.3764 56.44,73.0431 56.5,72.5 Z"/></g>
<g><path style="opacity:0.984" fill="#f7c30b" d="M 74.5,71.5 C 75.5,71.8333 76.1667,72.5 76.5,73.5C 74.1638,74.5939 74.1638,75.9272 76.5,77.5C 76.5,77.8333 76.5,78.1667 76.5,78.5C 76.1667,78.5 75.8333,78.5 75.5,78.5C 70.6431,73.9623 69.3098,74.9623 71.5,81.5C 71.1667,81.5 70.8333,81.5 70.5,81.5C 70.1075,79.7162 69.4408,78.0495 68.5,76.5C 69.404,75.791 69.7373,74.791 69.5,73.5C 71.0174,73.5106 72.1841,74.1772 73,75.5C 73.4922,74.451 73.3256,73.451 72.5,72.5C 72.9569,71.7025 73.6236,71.3691 74.5,71.5 Z"/></g>
<g><path style="opacity:0.578" fill="#eeb507" d="M 76.5,73.5 C 78.035,74.3543 79.3684,74.3543 80.5,73.5C 80.8333,73.5 81.1667,73.5 81.5,73.5C 82.2899,74.7942 83.2899,75.9609 84.5,77C 84.2716,77.3988 83.9382,77.5654 83.5,77.5C 81.1943,75.1437 78.861,75.1437 76.5,77.5C 74.1638,75.9272 74.1638,74.5939 76.5,73.5 Z"/></g>
<g><path style="opacity:0.031" fill="#8b5c00" d="M 111.5,74.5 C 114.097,74.6432 116.431,75.4766 118.5,77C 115.942,77.2753 113.608,76.7753 111.5,75.5C 111.5,75.1667 111.5,74.8333 111.5,74.5 Z"/></g>
<g><path style="opacity:0.516" fill="#d79b01" d="M 42.5,73.5 C 43.1667,73.5 43.8333,73.5 44.5,73.5C 44.1667,74.1667 43.8333,74.8333 43.5,75.5C 43.4431,76.609 43.1098,77.609 42.5,78.5C 40.6854,79.6298 38.6854,80.2964 36.5,80.5C 36.5,79.8333 36.5,79.1667 36.5,78.5C 37.5,77.1667 38.5,75.8333 39.5,74.5C 40.1667,74.5 40.8333,74.5 41.5,74.5C 42.1667,74.5 42.5,74.1667 42.5,73.5 Z"/></g>
<g><path style="opacity:0.59" fill="#edb204" d="M 54.5,79.5 C 52.6253,77.9219 51.2919,78.2552 50.5,80.5C 49.8333,80.5 49.5,80.1667 49.5,79.5C 49.8333,78.8333 50.1667,78.1667 50.5,77.5C 51.1667,77.1667 51.8333,76.8333 52.5,76.5C 53.4822,75.8592 54.4822,75.1925 55.5,74.5C 56.6336,76.4385 56.3003,78.1052 54.5,79.5 Z"/></g>
<g><path style="opacity:0.227" fill="#d09200" d="M 83.5,77.5 C 83.8333,78.1667 84.1667,78.8333 84.5,79.5C 84.5,80.1667 84.8333,80.5 85.5,80.5C 85.5,81.1667 85.8333,81.5 86.5,81.5C 87.1667,82.5 87.8333,83.5 88.5,84.5C 88.1667,84.5 87.8333,84.5 87.5,84.5C 84.5,82.5 81.5,80.5 78.5,78.5C 77.8333,78.5 77.1667,78.5 76.5,78.5C 76.5,78.1667 76.5,77.8333 76.5,77.5C 78.861,75.1437 81.1943,75.1437 83.5,77.5 Z"/></g>
<g><path style="opacity:0.59" fill="#dd9f00" d="M 83.5,71.5 C 85.1054,72.0059 85.4387,72.6726 84.5,73.5C 83.1667,73.8333 83.1667,74.1667 84.5,74.5C 85.8333,75.8333 87.1667,77.1667 88.5,78.5C 88.5,79.8333 87.8333,80.5 86.5,80.5C 86.1667,80.5 85.8333,80.5 85.5,80.5C 84.8333,80.5 84.5,80.1667 84.5,79.5C 84.1667,78.8333 83.8333,78.1667 83.5,77.5C 83.9382,77.5654 84.2716,77.3988 84.5,77C 83.2899,75.9609 82.2899,74.7942 81.5,73.5C 82.1667,72.8333 82.8333,72.1667 83.5,71.5 Z"/></g>
<g><path style="opacity:0.02" fill="#a97200" d="M 86.5,74.5 C 87.4916,74.6716 88.1583,74.3382 88.5,73.5C 88.5109,70.9991 89.1776,70.8324 90.5,73C 90.1667,73.3333 89.8333,73.6667 89.5,74C 91.9962,75.0804 94.3295,76.4138 96.5,78C 92.8518,77.7284 89.5185,76.5617 86.5,74.5 Z"/></g>
<g><path style="opacity:0.173" fill="#c88b00" d="M 50.5,77.5 C 50.1667,78.1667 49.8333,78.8333 49.5,79.5C 49.1667,79.5 48.8333,79.5 48.5,79.5C 48.5,78.8333 48.1667,78.5 47.5,78.5C 46.7784,78.0825 46.2784,77.4158 46,76.5C 45.6012,76.7284 45.4346,77.0618 45.5,77.5C 44.8333,77.5 44.5,77.8333 44.5,78.5C 43.8333,78.5 43.5,78.8333 43.5,79.5C 42.8333,79.5 42.5,79.1667 42.5,78.5C 43.1098,77.609 43.4431,76.609 43.5,75.5C 44.1667,75.5 44.8333,75.5 45.5,75.5C 46.4959,75.5858 47.3292,75.2524 48,74.5C 48.6979,75.6906 49.5313,76.6906 50.5,77.5 Z"/></g>
<g><path style="opacity:0.935" fill="#f7c007" d="M 62.5,74.5 C 62.5,75.8333 62.5,77.1667 62.5,78.5C 61.5084,78.3284 60.8417,78.6618 60.5,79.5C 59.2719,78.6935 58.2719,77.6935 57.5,76.5C 57.8417,75.6618 58.5084,75.3284 59.5,75.5C 60.391,74.8902 61.391,74.5569 62.5,74.5 Z"/></g>
<g><path style="opacity:0.153" fill="#b57b00" d="M 47.5,78.5 C 46.1667,80.5 44.5,82.1667 42.5,83.5C 42.5,82.8333 42.5,82.1667 42.5,81.5C 42.8333,80.8333 43.1667,80.1667 43.5,79.5C 44.1667,79.5 44.5,79.1667 44.5,78.5C 45.1667,78.5 45.5,78.1667 45.5,77.5C 45.4346,77.0618 45.6012,76.7284 46,76.5C 46.2784,77.4158 46.7784,78.0825 47.5,78.5 Z"/></g>
<g><path style="opacity:0.551" fill="#efb303" d="M 68.5,76.5 C 69.4408,78.0495 70.1075,79.7162 70.5,81.5C 68.7988,81.9662 67.2988,81.9662 66,81.5C 65.4867,82.5266 64.9867,83.5266 64.5,84.5C 64.1667,84.5 63.8333,84.5 63.5,84.5C 62.0937,84.0269 61.427,83.0269 61.5,81.5C 61.6716,80.5084 61.3382,79.8417 60.5,79.5C 60.8417,78.6618 61.5084,78.3284 62.5,78.5C 62.9867,79.4734 63.4867,80.4734 64,81.5C 64.3333,79.8333 64.6667,78.1667 65,76.5C 66.5545,74.0728 67.7211,74.0728 68.5,76.5 Z"/></g>
<g><path style="opacity:0.133" fill="#ba7f00" d="M 75.5,79.5 C 76.8333,80.1667 77.8333,81.1667 78.5,82.5C 77.2719,83.3065 76.2719,84.3065 75.5,85.5C 74.8333,85.5 74.1667,85.5 73.5,85.5C 73.1667,84.1667 72.8333,82.8333 72.5,81.5C 73.7777,81.2178 74.7777,80.5511 75.5,79.5 Z"/></g>
<g><path style="opacity:0.306" fill="#dea001" d="M 75.5,79.5 C 75.5,79.1667 75.5,78.8333 75.5,78.5C 75.8333,78.5 76.1667,78.5 76.5,78.5C 77.1667,78.5 77.8333,78.5 78.5,78.5C 78.7329,80.0618 79.3995,81.3951 80.5,82.5C 80.6716,83.4916 80.3382,84.1583 79.5,84.5C 78.6618,84.1583 78.3284,83.4916 78.5,82.5C 77.8333,81.1667 76.8333,80.1667 75.5,79.5 Z"/></g>
<g><path style="opacity:0.384" fill="#c48800" d="M 88.5,78.5 C 92.8574,81.8643 97.1907,85.1976 101.5,88.5C 101.5,89.1667 101.167,89.5 100.5,89.5C 96.0908,86.4335 91.4241,83.7668 86.5,81.5C 86.5,81.1667 86.5,80.8333 86.5,80.5C 87.8333,80.5 88.5,79.8333 88.5,78.5 Z"/></g>
<g><path style="opacity:0.473" fill="#d39500" d="M 48.5,79.5 C 48.8333,79.5 49.1667,79.5 49.5,79.5C 49.5,80.1667 49.8333,80.5 50.5,80.5C 49.8333,81.5 49.1667,82.5 48.5,83.5C 48.5,83.8333 48.5,84.1667 48.5,84.5C 47.8333,84.5 47.5,84.8333 47.5,85.5C 46.8333,85.5 46.5,85.8333 46.5,86.5C 46.5,86.8333 46.5,87.1667 46.5,87.5C 44.6053,88.973 42.9387,90.6397 41.5,92.5C 40.8333,92.5 40.5,92.1667 40.5,91.5C 43.1667,87.5 45.8333,83.5 48.5,79.5 Z"/></g>
<g><path style="opacity:0.473" fill="#e8aa01" d="M 57.5,76.5 C 58.2719,77.6935 59.2719,78.6935 60.5,79.5C 61.3382,79.8417 61.6716,80.5084 61.5,81.5C 59.9519,81.8212 59.2852,82.8212 59.5,84.5C 58.8423,83.6016 58.1757,82.6016 57.5,81.5C 56.8165,81.8627 56.1499,82.1961 55.5,82.5C 56.1667,80.5 56.8333,78.5 57.5,76.5 Z"/></g>
<g><path style="opacity:0.133" fill="#e2a300" d="M 75.5,78.5 C 75.5,78.8333 75.5,79.1667 75.5,79.5C 74.7777,80.5511 73.7777,81.2178 72.5,81.5C 72.1667,81.5 71.8333,81.5 71.5,81.5C 69.3098,74.9623 70.6431,73.9623 75.5,78.5 Z"/></g>
<g><path style="opacity:0.004" fill="#9c6800" d="M 21.5,80.5 C 23.337,80.6395 23.6704,81.3061 22.5,82.5C 21.7025,82.0431 21.3691,81.3764 21.5,80.5 Z"/></g>
<g><path style="opacity:0.182" fill="#c18400" d="M 36.5,78.5 C 36.5,79.1667 36.5,79.8333 36.5,80.5C 32.795,83.5256 28.795,86.1923 24.5,88.5C 24.5,87.8333 24.5,87.1667 24.5,86.5C 28.205,83.4744 32.205,80.8077 36.5,78.5 Z"/></g>
<g><path style="opacity:0.094" fill="#ae7600" d="M 42.5,81.5 C 42.5,82.1667 42.5,82.8333 42.5,83.5C 39.7291,85.767 37.0625,88.267 34.5,91C 33.8333,91.6667 33.1667,91.6667 32.5,91C 35.7025,87.6291 39.0359,84.4625 42.5,81.5 Z"/></g>
<g><path style="opacity:0.133" fill="#cb8d00" d="M 59.5,84.5 C 59.5,85.5 59.5,86.5 59.5,87.5C 59.1667,87.5 58.8333,87.5 58.5,87.5C 58.6716,86.5084 58.3382,85.8417 57.5,85.5C 56.794,84.4427 56.4607,84.7761 56.5,86.5C 55.596,87.209 55.2627,88.209 55.5,89.5C 54.5,89.5 53.5,89.5 52.5,89.5C 53.1098,88.609 53.4431,87.609 53.5,86.5C 54.3446,85.3285 55.0113,83.9952 55.5,82.5C 56.1499,82.1961 56.8165,81.8627 57.5,81.5C 58.1757,82.6016 58.8423,83.6016 59.5,84.5 Z"/></g>
<g><path style="opacity:0.008" fill="#8b5c00" d="M 106.5,81.5 C 108.337,81.6395 108.67,82.3061 107.5,83.5C 106.702,83.0431 106.369,82.3764 106.5,81.5 Z"/></g>
<g><path style="opacity:0.59" fill="#e2a401" d="M 54.5,79.5 C 54.2627,80.791 54.596,81.791 55.5,82.5C 55.0113,83.9952 54.3446,85.3285 53.5,86.5C 53.5,85.8333 53.1667,85.5 52.5,85.5C 52.5,84.8333 52.5,84.1667 52.5,83.5C 53.1667,83.5 53.5,83.1667 53.5,82.5C 53.5,81.8333 53.1667,81.5 52.5,81.5C 51.8333,81.1667 51.1667,80.8333 50.5,80.5C 51.2919,78.2552 52.6253,77.9219 54.5,79.5 Z"/></g>
<g><path style="opacity:0.227" fill="#d69700" d="M 61.5,81.5 C 61.427,83.0269 62.0937,84.0269 63.5,84.5C 62.1667,86.5 62.1667,88.5 63.5,90.5C 63.1667,90.5 62.8333,90.5 62.5,90.5C 61.0937,90.0269 60.427,89.0269 60.5,87.5C 60.7373,86.209 60.404,85.209 59.5,84.5C 59.2852,82.8212 59.9519,81.8212 61.5,81.5 Z"/></g>
<g><path style="opacity:0.053" fill="#c28500" d="M 70.5,82.5 C 71.3007,84.0418 71.634,85.7085 71.5,87.5C 71.5654,87.9382 71.3988,88.2716 71,88.5C 70.7216,87.5842 70.2216,86.9175 69.5,86.5C 67.3023,86.5912 66.9689,85.9245 68.5,84.5C 68.8333,83.5 69.5,82.8333 70.5,82.5 Z"/></g>
<g><path style="opacity:0.094" fill="#b27800" d="M 50.5,80.5 C 51.1667,80.8333 51.8333,81.1667 52.5,81.5C 53.1667,81.5 53.5,81.8333 53.5,82.5C 53.5,83.1667 53.1667,83.5 52.5,83.5C 50.4424,85.9266 48.6091,88.5932 47,91.5C 46.51,90.2068 46.3433,88.8734 46.5,87.5C 47.8333,87.1667 47.8333,86.8333 46.5,86.5C 46.5,85.8333 46.8333,85.5 47.5,85.5C 48.1667,85.5 48.5,85.1667 48.5,84.5C 49.8333,84.1667 49.8333,83.8333 48.5,83.5C 49.1667,82.5 49.8333,81.5 50.5,80.5 Z"/></g>
<g><path style="opacity:0.433" fill="#e6a901" d="M 70.5,81.5 C 70.8333,81.5 71.1667,81.5 71.5,81.5C 71.8333,81.5 72.1667,81.5 72.5,81.5C 72.8333,82.8333 73.1667,84.1667 73.5,85.5C 73.6716,86.4916 73.3382,87.1583 72.5,87.5C 72.1667,87.5 71.8333,87.5 71.5,87.5C 71.634,85.7085 71.3007,84.0418 70.5,82.5C 70.5,82.1667 70.5,81.8333 70.5,81.5 Z"/></g>
<g><path style="opacity:0.196" fill="#d69700" d="M 70.5,81.5 C 70.5,81.8333 70.5,82.1667 70.5,82.5C 69.5,82.8333 68.8333,83.5 68.5,84.5C 67.209,84.2627 66.209,84.596 65.5,85.5C 65.8064,88.3854 65.4731,91.0521 64.5,93.5C 64.5,90.5 64.5,87.5 64.5,84.5C 64.9867,83.5266 65.4867,82.5266 66,81.5C 67.2988,81.9662 68.7988,81.9662 70.5,81.5 Z"/></g>
<g><path style="opacity:0.008" fill="#976400" d="M 87.5,84.5 C 87.8333,84.5 88.1667,84.5 88.5,84.5C 90.6452,84.9166 91.3118,85.9166 90.5,87.5C 89.1451,86.8118 88.1451,85.8118 87.5,84.5 Z"/></g>
<g><path style="opacity:0.6" fill="#ebad02" d="M 63.5,84.5 C 63.8333,84.5 64.1667,84.5 64.5,84.5C 64.5,87.5 64.5,90.5 64.5,93.5C 64.5,94.1667 64.5,94.8333 64.5,95.5C 63.5489,94.0813 63.2155,92.4147 63.5,90.5C 62.1667,88.5 62.1667,86.5 63.5,84.5 Z"/></g>
<g><path style="opacity:0.094" fill="#b57a00" d="M 65.5,85.5 C 66.209,84.596 67.209,84.2627 68.5,84.5C 66.9689,85.9245 67.3023,86.5912 69.5,86.5C 70.1346,89.4929 70.3013,92.4929 70,95.5C 68.7783,91.985 67.2783,88.6517 65.5,85.5 Z"/></g>
<g><path style="opacity:0.473" fill="#e2a501" d="M 52.5,85.5 C 53.1667,85.5 53.5,85.8333 53.5,86.5C 53.4431,87.609 53.1098,88.609 52.5,89.5C 52.6716,90.4916 52.3382,91.1583 51.5,91.5C 50.8333,91.5 50.5,91.1667 50.5,90.5C 50.4021,88.4471 51.0687,86.7804 52.5,85.5 Z"/></g>
<g><path style="opacity:0.412" fill="#d29400" d="M 73.5,85.5 C 74.1667,85.5 74.8333,85.5 75.5,85.5C 74.375,86.6522 74.375,87.6522 75.5,88.5C 76.1009,91.9679 77.1009,95.3012 78.5,98.5C 77.8333,98.5 77.1667,98.5 76.5,98.5C 74.7709,94.9795 73.4375,91.3128 72.5,87.5C 73.3382,87.1583 73.6716,86.4916 73.5,85.5 Z"/></g>
<g><path style="opacity:0.008" fill="#865900" d="M 75.5,87.5 C 76.8333,88.1667 76.8333,88.1667 75.5,87.5 Z"/></g>
<g><path style="opacity:0.094" fill="#bf8200" d="M 57.5,85.5 C 58.3382,85.8417 58.6716,86.5084 58.5,87.5C 58.5,87.8333 58.5,88.1667 58.5,88.5C 58.552,90.9029 58.2186,93.2362 57.5,95.5C 56.6618,95.1583 56.3284,94.4916 56.5,93.5C 56.5,91.1667 56.5,88.8333 56.5,86.5C 57.1667,86.5 57.5,86.1667 57.5,85.5 Z"/></g>
<g><path style="opacity:0.02" fill="#a46e00" d="M 58.5,88.5 C 58.5,88.1667 58.5,87.8333 58.5,87.5C 58.8333,87.5 59.1667,87.5 59.5,87.5C 59.8333,87.5 60.1667,87.5 60.5,87.5C 60.427,89.0269 61.0937,90.0269 62.5,90.5C 62.5,91.5 62.5,92.5 62.5,93.5C 61.5309,95.663 60.6976,97.9963 60,100.5C 59.8238,96.3123 59.3238,92.3123 58.5,88.5 Z"/></g>
<g><path style="opacity:0.204" fill="#be8100" d="M 80.5,82.5 C 82.5224,84.5313 84.1891,86.8646 85.5,89.5C 85.1667,90.1667 84.8333,90.8333 84.5,91.5C 83.0911,89.0283 81.4244,86.695 79.5,84.5C 80.3382,84.1583 80.6716,83.4916 80.5,82.5 Z"/></g>
<g><path style="opacity:0.033" fill="#a26c00" d="M 94.5,89.5 C 95.9953,89.4148 96.9953,90.0815 97.5,91.5C 95.6043,92.6394 94.6043,91.9728 94.5,89.5 Z"/></g>
<g><path style="opacity:0.071" fill="#926000" d="M 24.5,86.5 C 24.5,87.1667 24.5,87.8333 24.5,88.5C 19.655,92.3954 14.655,95.3954 9.5,97.5C 14.2139,93.4542 19.2139,89.7875 24.5,86.5 Z"/></g>
<g><path style="opacity:0.141" fill="#946200" d="M 40.5,91.5 C 40.5,92.1667 40.8333,92.5 41.5,92.5C 39.5179,95.8103 37.1846,98.8103 34.5,101.5C 34.1667,101.5 33.8333,101.5 33.5,101.5C 35.3437,97.8084 37.6771,94.4751 40.5,91.5 Z"/></g>
<g><path style="opacity:0.333" fill="#c18500" d="M 50.5,90.5 C 50.5,91.1667 50.8333,91.5 51.5,91.5C 51.3964,93.7028 50.7298,95.7028 49.5,97.5C 48.8333,97.8333 48.1667,98.1667 47.5,98.5C 47.9802,95.5568 48.9802,92.8902 50.5,90.5 Z"/></g>
<g><path style="opacity:0.141" fill="#a26c00" d="M 85.5,89.5 C 86.9744,90.4363 87.9744,91.7697 88.5,93.5C 88.5,94.1667 88.5,94.8333 88.5,95.5C 86.8058,94.4726 85.4725,93.1392 84.5,91.5C 84.8333,90.8333 85.1667,90.1667 85.5,89.5 Z"/></g>
<g><path style="opacity:0.071" fill="#966300" d="M 101.5,88.5 C 106.569,91.6954 111.235,95.3621 115.5,99.5C 109.877,97.0848 104.877,93.7515 100.5,89.5C 101.167,89.5 101.5,89.1667 101.5,88.5 Z"/></g>
<g><path style="opacity:0.008" fill="#8d5d00" d="M 56.5,93.5 C 56.3284,94.4916 56.6618,95.1583 57.5,95.5C 57.6882,97.1033 57.1882,98.4366 56,99.5C 55.2109,97.2884 55.3775,95.2884 56.5,93.5 Z"/></g>
<g><path style="opacity:0.227" fill="#dd9e00" d="M 62.5,90.5 C 62.8333,90.5 63.1667,90.5 63.5,90.5C 63.2155,92.4147 63.5489,94.0813 64.5,95.5C 64.5,96.8333 64.5,98.1667 64.5,99.5C 63.8333,99.8333 63.1667,100.167 62.5,100.5C 62.5,98.1667 62.5,95.8333 62.5,93.5C 62.5,92.5 62.5,91.5 62.5,90.5 Z"/></g>
<g><path style="opacity:0.031" fill="#8b5c00" d="M 82.5,94.5 C 83.525,94.8966 83.6917,95.5632 83,96.5C 82.5357,95.9056 82.369,95.2389 82.5,94.5 Z"/></g>
<g><path style="opacity:0.008" fill="#916000" d="M 25.5,97.5 C 25.8966,96.475 26.5632,96.3083 27.5,97C 26.9056,97.4643 26.2389,97.631 25.5,97.5 Z"/></g>
<g><path style="opacity:0.106" fill="#966300" d="M 49.5,97.5 C 47.602,102.296 45.4353,106.962 43,111.5C 43.3629,106.774 44.8629,102.441 47.5,98.5C 48.1667,98.1667 48.8333,97.8333 49.5,97.5 Z"/></g>
<g><path style="opacity:0.031" fill="#8e5d00" d="M 88.5,93.5 C 91.3899,96.9221 94.0566,100.589 96.5,104.5C 96.3333,104.833 96.1667,105.167 96,105.5C 93.2476,102.316 90.7476,98.9825 88.5,95.5C 88.5,94.8333 88.5,94.1667 88.5,93.5 Z"/></g>
<g><path style="opacity:0.004" fill="#a77100" d="M 115.5,99.5 C 116.833,100.167 116.833,100.167 115.5,99.5 Z"/></g>
<g><path style="opacity:0.004" fill="#a87100" d="M 40.5,100.5 C 43.0009,100.511 43.1676,101.178 41,102.5C 40.5357,101.906 40.369,101.239 40.5,100.5 Z"/></g>
<g><path style="opacity:0.162" fill="#ba7e00" d="M 64.5,99.5 C 64.5,101.167 64.5,102.833 64.5,104.5C 63.8333,105.5 63.1667,106.5 62.5,107.5C 62.5,105.167 62.5,102.833 62.5,100.5C 63.1667,100.167 63.8333,99.8333 64.5,99.5 Z"/></g>
<g><path style="opacity:0.031" fill="#8a5b00" d="M 72.5,99.5 C 73.7733,100.077 73.7733,100.743 72.5,101.5C 71.537,101.03 71.537,100.363 72.5,99.5 Z"/></g>
<g><path style="opacity:0.106" fill="#956200" d="M 76.5,98.5 C 77.1667,98.5 77.8333,98.5 78.5,98.5C 80.6282,103.393 82.1282,108.393 83,113.5C 80.0858,108.873 77.9191,103.873 76.5,98.5 Z"/></g>
<g><path style="opacity:0.031" fill="#895a00" d="M 33.5,101.5 C 33.8333,101.5 34.1667,101.5 34.5,101.5C 33.1579,104.166 31.3245,106.499 29,108.5C 29.4538,105.614 30.9538,103.281 33.5,101.5 Z"/></g>
<g><path style="opacity:0.004" fill="#a77100" d="M 97.5,107.5 C 98.8333,108.167 98.8333,108.167 97.5,107.5 Z"/></g>
<g><path style="opacity:0.008" fill="#916000" d="M 64.5,104.5 C 64.666,109.844 64.4994,115.177 64,120.5C 62.5692,116.365 62.0692,112.032 62.5,107.5C 63.1667,106.5 63.8333,105.5 64.5,104.5 Z"/></g>
</svg>
