<?xml version="1.0" encoding="utf-8"?>
<!-- Generator: Adobe Illustrator 27.5.0, SVG Export Plug-In . SVG Version: 6.00 Build 0)  -->
<svg version="1.1" id="Layer_1" xmlns="http://www.w3.org/2000/svg" xmlns:xlink="http://www.w3.org/1999/xlink" x="0px" y="0px"
	 viewBox="0 0 750 500" style="enable-background:new 0 0 750 500;" xml:space="preserve">
<rect style="fill:#FFFFFF;" width="750" height="500"/>
<g>
	<defs>
		<rect id="SVGID_1_" width="750" height="500"/>
	</defs>
	<clipPath id="SVGID_00000180336156530650452840000014629959233061525663_">
		<use xlink:href="#SVGID_1_"  style="overflow:visible;"/>
	</clipPath>
	<g style="clip-path:url(#SVGID_00000180336156530650452840000014629959233061525663_);">
		<g>
			<polygon style="fill:#E9E9E9;" points="335.222,798.379 374.573,282.151 400.217,799.241 335.222,798.379 			"/>
		</g>
		<g>
			<polygon style="fill:#E9E9E9;" points="128.395,741.415 362.302,279.542 188.111,767.084 128.395,741.415 			"/>
		</g>
		<g>
			<polygon style="fill:#E9E9E9;" points="-40.89,609.637 351.964,272.434 4.459,656.204 -40.89,609.637 			"/>
		</g>
		<g>
			<polygon style="fill:#E9E9E9;" points="-146.859,423.107 345.133,261.91 -122.783,483.483 -146.859,423.107 			"/>
		</g>
		<g>
			<polygon style="fill:#E9E9E9;" points="-173.38,210.222 342.848,249.573 -174.242,275.217 -173.38,210.222 			"/>
		</g>
		<g>
			<polygon style="fill:#E9E9E9;" points="-116.415,3.395 345.459,237.302 -142.084,63.111 -116.415,3.395 			"/>
		</g>
		<g>
			<polygon style="fill:#E9E9E9;" points="15.364,-165.89 352.567,226.964 -31.204,-120.541 15.364,-165.89 			"/>
		</g>
		<g>
			<polygon style="fill:#E9E9E9;" points="201.894,-271.859 363.09,220.133 141.517,-247.783 201.894,-271.859 			"/>
		</g>
		<g>
			<polygon style="fill:#E9E9E9;" points="414.777,-298.38 375.426,217.848 349.783,-299.242 414.777,-298.38 			"/>
		</g>
		<g>
			<polygon style="fill:#E9E9E9;" points="621.605,-241.415 387.698,220.459 561.889,-267.084 621.605,-241.415 			"/>
		</g>
		<g>
			<polygon style="fill:#E9E9E9;" points="790.89,-109.636 398.036,227.567 745.541,-156.204 790.89,-109.636 			"/>
		</g>
		<g>
			<polygon style="fill:#E9E9E9;" points="896.859,76.894 404.868,238.09 872.784,16.517 896.859,76.894 			"/>
		</g>
		<g>
			<polygon style="fill:#E9E9E9;" points="923.379,289.777 407.151,250.426 924.241,224.783 923.379,289.777 			"/>
		</g>
		<g>
			<polygon style="fill:#E9E9E9;" points="866.415,496.605 404.542,262.698 892.084,436.889 866.415,496.605 			"/>
		</g>
		<g>
			<polygon style="fill:#E9E9E9;" points="734.637,665.89 397.434,273.036 781.204,620.541 734.637,665.89 			"/>
		</g>
		<g>
			<polygon style="fill:#E9E9E9;" points="548.107,771.859 386.91,279.868 608.483,747.784 548.107,771.859 			"/>
		</g>
	</g>
	<g style="clip-path:url(#SVGID_00000180336156530650452840000014629959233061525663_);">
		<g>
			<polygon style="fill:#FAFAFA;" points="466.101,797.251 382.227,287.178 495.549,791.526 466.101,797.251 			"/>
		</g>
		<g>
			<polygon style="fill:#FAFAFA;" points="249.743,790.457 367.45,287.115 279.141,796.438 249.743,790.457 			"/>
		</g>
		<g>
			<polygon style="fill:#FAFAFA;" points="52.453,701.382 353.821,281.399 77.324,718.158 52.453,701.382 			"/>
		</g>
		<g>
			<polygon style="fill:#FAFAFA;" points="-95.731,543.591 343.418,270.905 -79.173,568.607 -95.731,543.591 			"/>
		</g>
		<g>
			<polygon style="fill:#FAFAFA;" points="-172.251,341.101 337.822,257.227 -166.527,370.549 -172.251,341.101 			"/>
		</g>
		<g>
			<polygon style="fill:#FAFAFA;" points="-165.457,124.743 337.886,242.45 -171.438,154.141 -165.457,124.743 			"/>
		</g>
		<g>
			<polygon style="fill:#FAFAFA;" points="-76.383,-72.547 343.601,228.821 -93.158,-47.676 -76.383,-72.547 			"/>
		</g>
		<g>
			<polygon style="fill:#FAFAFA;" points="81.41,-220.731 354.095,218.418 56.393,-204.173 81.41,-220.731 			"/>
		</g>
		<g>
			<polygon style="fill:#FAFAFA;" points="283.899,-297.251 367.773,212.821 254.45,-291.527 283.899,-297.251 			"/>
		</g>
		<g>
			<polygon style="fill:#FAFAFA;" points="500.258,-290.457 382.55,212.886 470.86,-296.438 500.258,-290.457 			"/>
		</g>
		<g>
			<polygon style="fill:#FAFAFA;" points="697.547,-201.383 396.179,218.601 672.676,-218.158 697.547,-201.383 			"/>
		</g>
		<g>
			<polygon style="fill:#FAFAFA;" points="845.732,-43.59 406.583,229.095 829.173,-68.607 845.732,-43.59 			"/>
		</g>
		<g>
			<polygon style="fill:#FAFAFA;" points="922.251,158.899 412.178,242.773 916.526,129.45 922.251,158.899 			"/>
		</g>
		<g>
			<polygon style="fill:#FAFAFA;" points="915.457,375.258 412.115,257.55 921.438,345.86 915.457,375.258 			"/>
		</g>
		<g>
			<polygon style="fill:#FAFAFA;" points="826.382,572.547 406.399,271.179 843.158,547.676 826.382,572.547 			"/>
		</g>
		<g>
			<polygon style="fill:#FAFAFA;" points="668.591,720.732 395.905,281.583 693.607,704.173 668.591,720.732 			"/>
		</g>
	</g>
</g>
</svg>
