<?xml version="1.0" encoding="UTF-8"?>
<!DOCTYPE svg PUBLIC "-//W3C//DTD SVG 1.1//EN" "http://www.w3.org/Graphics/SVG/1.1/DTD/svg11.dtd">
<svg xmlns="http://www.w3.org/2000/svg" version="1.1" width="64px" height="64px" style="shape-rendering:geometricPrecision; text-rendering:geometricPrecision; image-rendering:optimizeQuality; fill-rule:evenodd; clip-rule:evenodd" xmlns:xlink="http://www.w3.org/1999/xlink">
<g><path style="opacity:0.947" fill="#fdb761" d="M 11.5,7.5 C 16.8397,7.66499 20.3397,10.3317 22,15.5C 23.8843,21.6685 24.7177,28.0019 24.5,34.5C 19.5322,33.3414 14.5322,32.3414 9.5,31.5C 8.88258,31.3893 8.38258,31.056 8,30.5C 6.07242,23.8258 6.07242,17.1591 8,10.5C 8.42244,8.5743 9.5891,7.5743 11.5,7.5 Z"/></g>
<g><path style="opacity:0.995" fill="#f8b361" d="M 40.5,7.5 C 44.2727,6.82243 47.106,8.15577 49,11.5C 49.5662,13.7226 50.3995,15.7226 51.5,17.5C 51.5,17.8333 51.5,18.1667 51.5,18.5C 51.5,19.1667 51.5,19.8333 51.5,20.5C 51.6633,22.8568 51.4966,25.1902 51,27.5C 50.3292,28.2524 49.4959,28.5858 48.5,28.5C 47.1667,28.5 46.5,27.8333 46.5,26.5C 47.1174,26.6107 47.6174,26.944 48,27.5C 49.1562,22.6529 48.3229,18.3196 45.5,14.5C 45.1667,13.5 44.5,12.8333 43.5,12.5C 41.7512,11.0149 39.7512,10.0149 37.5,9.5C 37.9731,8.09368 38.9731,7.42702 40.5,7.5 Z"/></g>
<g><path style="opacity:0.921" fill="#aa6256" d="M 27.5,9.5 C 30.8333,9.5 34.1667,9.5 37.5,9.5C 39.7512,10.0149 41.7512,11.0149 43.5,12.5C 38.1463,12.5688 32.813,12.9022 27.5,13.5C 27.5,12.1667 27.5,10.8333 27.5,9.5 Z"/></g>
<g><path style="opacity:1" fill="#e4944d" d="M 14.5,12.5 C 13.5119,17.6405 13.1786,22.9738 13.5,28.5C 15.861,28.6741 18.1944,29.0074 20.5,29.5C 20.6309,30.3764 20.2975,31.0431 19.5,31.5C 16.2173,30.812 13.0506,29.812 10,28.5C 9.3742,22.8051 9.54086,17.1385 10.5,11.5C 12.099,11.2322 13.4324,11.5655 14.5,12.5 Z"/></g>
<g><path style="opacity:0.999" fill="#ffdd98" d="M 55.5,16.5 C 55.106,18.7099 53.7727,20.0432 51.5,20.5C 51.5,19.8333 51.5,19.1667 51.5,18.5C 54.1049,16.2396 53.9382,13.9062 51,11.5C 51.1349,13.4247 51.3016,15.4247 51.5,17.5C 50.3995,15.7226 49.5662,13.7226 49,11.5C 47.106,8.15577 44.2727,6.82243 40.5,7.5C 49.018,3.94808 54.018,6.94808 55.5,16.5 Z"/></g>
<g><path style="opacity:1" fill="#a66055" d="M 45.5,14.5 C 48.3229,18.3196 49.1562,22.6529 48,27.5C 47.6174,26.944 47.1174,26.6107 46.5,26.5C 46.4894,24.9826 45.8228,23.8159 44.5,23C 41.7795,22.3985 39.1128,22.5651 36.5,23.5C 36.0825,22.7784 35.4158,22.2784 34.5,22C 34.8333,21.6667 35.1667,21.3333 35.5,21C 39.5,20.6667 43.5,20.3333 47.5,20C 41.8042,19.8299 36.1376,19.3299 30.5,18.5C 30.1667,17.8333 29.8333,17.1667 29.5,16.5C 34.6629,14.7351 39.9963,14.0684 45.5,14.5 Z"/></g>
<g><path style="opacity:1" fill="#fff3da" d="M 51.5,18.5 C 51.5,18.1667 51.5,17.8333 51.5,17.5C 51.3016,15.4247 51.1349,13.4247 51,11.5C 53.9382,13.9062 54.1049,16.2396 51.5,18.5 Z"/></g>
<g><path style="opacity:0.935" fill="#ffd374" d="M 55.5,16.5 C 56.6484,20.9811 56.8151,25.6478 56,30.5C 55.6174,31.056 55.1174,31.3893 54.5,31.5C 52.323,31.5861 50.323,32.2528 48.5,33.5C 44.6388,31.5307 44.6388,29.864 48.5,28.5C 49.4959,28.5858 50.3292,28.2524 51,27.5C 51.4966,25.1902 51.6633,22.8568 51.5,20.5C 53.7727,20.0432 55.106,18.7099 55.5,16.5 Z"/></g>
<g><path style="opacity:1" fill="#7f464c" d="M 14.5,12.5 C 18.7366,17.3016 20.7366,22.9683 20.5,29.5C 18.1944,29.0074 15.861,28.6741 13.5,28.5C 13.1786,22.9738 13.5119,17.6405 14.5,12.5 Z"/></g>
<g><path style="opacity:1" fill="#fdd37a" d="M 24.5,9.5 C 27.7534,15.7303 29.2534,22.3969 29,29.5C 29.3826,30.056 29.8826,30.3893 30.5,30.5C 30.5,30.8333 30.5,31.1667 30.5,31.5C 29.2617,31.81 29.2617,32.31 30.5,33C 31.448,33.4828 32.448,33.6495 33.5,33.5C 31.2821,35.8441 28.6154,36.1774 25.5,34.5C 25.1667,34.5 24.8333,34.5 24.5,34.5C 24.7177,28.0019 23.8843,21.6685 22,15.5C 20.3397,10.3317 16.8397,7.66499 11.5,7.5C 16.2978,4.57639 20.6311,5.24306 24.5,9.5 Z"/></g>
<g><path style="opacity:1" fill="#884b50" d="M 24.5,9.5 C 25.5,9.5 26.5,9.5 27.5,9.5C 27.5,10.8333 27.5,12.1667 27.5,13.5C 32.813,12.9022 38.1463,12.5688 43.5,12.5C 44.5,12.8333 45.1667,13.5 45.5,14.5C 39.9963,14.0684 34.6629,14.7351 29.5,16.5C 29.8333,17.1667 30.1667,17.8333 30.5,18.5C 36.1376,19.3299 41.8042,19.8299 47.5,20C 43.5,20.3333 39.5,20.6667 35.5,21C 35.1667,21.3333 34.8333,21.6667 34.5,22C 35.4158,22.2784 36.0825,22.7784 36.5,23.5C 35.8153,25.4144 35.3153,27.4144 35,29.5C 33.6439,30.3802 32.1439,30.7135 30.5,30.5C 29.8826,30.3893 29.3826,30.056 29,29.5C 29.2534,22.3969 27.7534,15.7303 24.5,9.5 Z"/></g>
<g><path style="opacity:0.98" fill="#f1a353" d="M 9.5,31.5 C 14.5322,32.3414 19.5322,33.3414 24.5,34.5C 24.8333,34.5 25.1667,34.5 25.5,34.5C 25.8432,36.4832 25.1765,37.8166 23.5,38.5C 16.5707,35.8652 13.5707,38.1986 14.5,45.5C 11.7742,47.3011 10.1076,46.6344 9.5,43.5C 10.8333,39.5 10.8333,35.5 9.5,31.5 Z"/></g>
<g><path style="opacity:1" fill="#f9b865" d="M 46.5,26.5 C 46.5,27.8333 47.1667,28.5 48.5,28.5C 44.6388,29.864 44.6388,31.5307 48.5,33.5C 50.323,32.2528 52.323,31.5861 54.5,31.5C 54.7709,33.3797 54.1042,34.713 52.5,35.5C 51.5,35.5 50.5,35.5 49.5,35.5C 50.412,39.1306 50.5787,42.7973 50,46.5C 49.3292,45.7476 48.4959,45.4142 47.5,45.5C 47.6633,43.1432 47.4966,40.8098 47,38.5C 43.7738,44.3627 39.9405,44.8627 35.5,40C 33.5273,39.5045 31.5273,39.3379 29.5,39.5C 28.5,39.5 27.5,39.5 26.5,39.5C 26.4955,43.5341 26.1621,47.5341 25.5,51.5C 23.0274,51.9118 21.6941,50.9118 21.5,48.5C 23.1745,45.4928 23.8412,42.1595 23.5,38.5C 25.1765,37.8166 25.8432,36.4832 25.5,34.5C 28.6154,36.1774 31.2821,35.8441 33.5,33.5C 34.2389,33.631 34.9056,33.4643 35.5,33C 33.8455,32.3923 32.1789,31.8923 30.5,31.5C 30.5,31.1667 30.5,30.8333 30.5,30.5C 32.1439,30.7135 33.6439,30.3802 35,29.5C 35.3153,27.4144 35.8153,25.4144 36.5,23.5C 39.1128,22.5651 41.7795,22.3985 44.5,23C 45.8228,23.8159 46.4894,24.9826 46.5,26.5 Z"/></g>
<g><path style="opacity:1" fill="#384051" d="M 40.5,24.5 C 41.5,24.5 42.5,24.5 43.5,24.5C 43.5,26.8333 43.5,29.1667 43.5,31.5C 42.1266,31.6567 40.7932,31.49 39.5,31C 39.5434,28.8611 39.8767,26.6945 40.5,24.5 Z"/></g>
<g><path style="opacity:1" fill="#fff0d3" d="M 30.5,31.5 C 32.1789,31.8923 33.8455,32.3923 35.5,33C 34.9056,33.4643 34.2389,33.631 33.5,33.5C 32.448,33.6495 31.448,33.4828 30.5,33C 29.2617,32.31 29.2617,31.81 30.5,31.5 Z"/></g>
<g><path style="opacity:1" fill="#8b4e51" d="M 23.5,38.5 C 23.8412,42.1595 23.1745,45.4928 21.5,48.5C 19.0846,47.6948 16.7513,46.6948 14.5,45.5C 13.5707,38.1986 16.5707,35.8652 23.5,38.5 Z"/></g>
<g><path style="opacity:1" fill="#915152" d="M 47.5,45.5 C 41.0749,45.9598 34.7416,46.9598 28.5,48.5C 28.7038,45.4824 29.0371,42.4824 29.5,39.5C 31.5273,39.3379 33.5273,39.5045 35.5,40C 39.9405,44.8627 43.7738,44.3627 47,38.5C 47.4966,40.8098 47.6633,43.1432 47.5,45.5 Z"/></g>
<g><path style="opacity:1" fill="#f9d38b" d="M 52.5,35.5 C 52.8903,39.5919 54.2236,43.2586 56.5,46.5C 47.7863,48.2858 39.1197,50.2858 30.5,52.5C 29.1938,51.5326 28.5271,50.1993 28.5,48.5C 34.7416,46.9598 41.0749,45.9598 47.5,45.5C 48.4959,45.4142 49.3292,45.7476 50,46.5C 50.5787,42.7973 50.412,39.1306 49.5,35.5C 50.5,35.5 51.5,35.5 52.5,35.5 Z"/></g>
<g><path style="opacity:0.918" fill="#f3a351" d="M 6.5,45.5 C 12.4955,48.1642 18.4955,50.8308 24.5,53.5C 25.2341,54.7079 25.5674,56.0413 25.5,57.5C 18.846,55.8915 12.5126,53.3915 6.5,50C 5.19914,48.3845 5.19914,46.8845 6.5,45.5 Z"/></g>
<g><path style="opacity:0.888" fill="#ffb962" d="M 56.5,46.5 C 57.4511,47.9187 57.7845,49.5853 57.5,51.5C 46.9086,53.8849 36.2419,55.8849 25.5,57.5C 25.5674,56.0413 25.2341,54.7079 24.5,53.5C 26.5648,53.4828 28.5648,53.1495 30.5,52.5C 39.1197,50.2858 47.7863,48.2858 56.5,46.5 Z"/></g>
<g><path style="opacity:1" fill="#fbd385" d="M 29.5,39.5 C 29.0371,42.4824 28.7038,45.4824 28.5,48.5C 28.5271,50.1993 29.1938,51.5326 30.5,52.5C 28.5648,53.1495 26.5648,53.4828 24.5,53.5C 18.4955,50.8308 12.4955,48.1642 6.5,45.5C 7.29049,44.5987 8.29049,43.9321 9.5,43.5C 10.1076,46.6344 11.7742,47.3011 14.5,45.5C 16.7513,46.6948 19.0846,47.6948 21.5,48.5C 21.6941,50.9118 23.0274,51.9118 25.5,51.5C 26.1621,47.5341 26.4955,43.5341 26.5,39.5C 27.5,39.5 28.5,39.5 29.5,39.5 Z"/></g>
</svg>
