<?xml version="1.0" encoding="UTF-8"?>
<!DOCTYPE svg PUBLIC "-//W3C//DTD SVG 1.1//EN" "http://www.w3.org/Graphics/SVG/1.1/DTD/svg11.dtd">
<svg xmlns="http://www.w3.org/2000/svg" version="1.1" width="64px" height="64px" style="shape-rendering:geometricPrecision; text-rendering:geometricPrecision; image-rendering:optimizeQuality; fill-rule:evenodd; clip-rule:evenodd" xmlns:xlink="http://www.w3.org/1999/xlink">
<g><path style="opacity:0.94" fill="#efa570" d="M 25.5,-0.5 C 29.5,-0.5 33.5,-0.5 37.5,-0.5C 42.2067,1.71515 45.3734,5.38182 47,10.5C 47.4994,16.1569 47.6661,21.8236 47.5,27.5C 45.1667,28.8333 42.8333,28.8333 40.5,27.5C 40.8507,21.7383 40.3507,16.0716 39,10.5C 34,5.16667 29,5.16667 24,10.5C 22.6493,16.0716 22.1493,21.7383 22.5,27.5C 20.3926,28.4682 18.0593,28.8016 15.5,28.5C 15.3338,22.4908 15.5005,16.4908 16,10.5C 17.6266,5.38182 20.7933,1.71515 25.5,-0.5 Z M 40.5,27.5 C 34.5,27.5 28.5,27.5 22.5,27.5C 22.1493,21.7383 22.6493,16.0716 24,10.5C 29,5.16667 34,5.16667 39,10.5C 40.3507,16.0716 40.8507,21.7383 40.5,27.5 Z"/></g>
<g><path style="opacity:0.994" fill="#fec162" d="M 22.5,27.5 C 28.5,27.5 34.5,27.5 40.5,27.5C 42.8333,28.8333 45.1667,28.8333 47.5,27.5C 48.7206,28.0283 49.8873,28.695 51,29.5C 51.6667,36.8333 51.6667,44.1667 51,51.5C 49.7455,56.2488 46.9122,59.5822 42.5,61.5C 36.4908,61.6662 30.4908,61.4995 24.5,61C 18.8073,58.6433 15.3073,54.4766 14,48.5C 13.8279,41.9867 13.3279,35.6534 12.5,29.5C 13.209,28.596 14.209,28.2627 15.5,28.5C 18.0593,28.8016 20.3926,28.4682 22.5,27.5 Z"/></g>
<g><path style="opacity:0.835" fill="#ffab59" d="M 12.5,29.5 C 13.3279,35.6534 13.8279,41.9867 14,48.5C 15.3073,54.4766 18.8073,58.6433 24.5,61C 30.4908,61.4995 36.4908,61.6662 42.5,61.5C 41.8333,62.1667 41.1667,62.8333 40.5,63.5C 34.5,63.5 28.5,63.5 22.5,63.5C 17.4363,60.9322 13.9363,56.9322 12,51.5C 11.1782,43.9882 11.3448,36.6549 12.5,29.5 Z"/></g>
<g><path style="opacity:1" fill="#88554f" d="M 29.5,36.5 C 31.7224,36.178 33.5557,36.8446 35,38.5C 34.7488,43.4556 34.5822,48.4556 34.5,53.5C 32.5,53.5 30.5,53.5 28.5,53.5C 28.7079,49.1206 28.3745,44.7873 27.5,40.5C 27.7517,38.9271 28.4183,37.5938 29.5,36.5 Z"/></g>
</svg>
